<?xml version="1.0" ?><svg enable-background="new 0 0 512 512" version="1.1" viewBox="0 0 512 512" xml:space="preserve" xmlns="http://www.w3.org/2000/svg" xmlns:xlink="http://www.w3.org/1999/xlink"><g id="Colors"><g><g><ellipse cx="256" cy="256.25" fill="#8DD3B7" rx="225.484" ry="225.25"/></g></g><g><g><g><g><g><path d="M234.139,419.874c3.672,0.439,7.446-1.183,9.59-4.496l149.428-231.193        c3.002-4.636,1.676-10.828-2.96-13.828c-4.638-3.003-10.829-1.675-13.828,2.96L226.94,404.51        c-3.002,4.636-1.676,10.828,2.96,13.828C231.223,419.195,232.674,419.699,234.139,419.874z" fill="#A7AEC1"/></g></g></g></g><g><g><path d="M209.943,413.64l-7.216,10.932c-9.24,16.521-24.238,8.902-24.238,8.902s-77.782-34.249-95.754-42.728      c-25.592-12.074-47.937-13.62-57.505,8.001c-8.528,19.27-7.864,36.354-7.864,36.354c0.333,51.235,37.864,53.741,37.864,53.741      l108.275,6.033c0,0,38.1,3.642,54.876-25.123l1.253-1.902c6.399-10.006,13.818-21.608,22.01-34.416      c0,0,9.435-12.141,1.966-17.063c-7.468-4.922-16.804-11.074-16.804-11.074S218.227,401.249,209.943,413.64z" fill="#DAE1EA"/></g></g><g opacity="0.5"><g><polygon fill="#FFFFFF" points="155.207,422.917 178.785,495.229 115.756,491.718 84.225,393.276     "/></g></g><g opacity="0.5"><g><polygon fill="#FFFFFF" points="57.374,382.007 92.562,491.965 68.613,490.107 35.691,386.463     "/></g></g><g id="XMLID_68_"><g><g><path d="M370.995,170.293l0.259,0.154c9.337,5.466,18.606,11.416,27.955,16.781       c52.123-81.497,95.246-148.9,95.246-148.9s7.586-13.679-6.605-20.074c-14.189-6.406-22.903,8.472-22.903,8.472       s-44.559,67.662-94.44,143.283C370.67,170.1,370.832,170.202,370.995,170.293z" fill="#767C93"/></g></g></g><g opacity="0.3"><g><path d="M491.898,20.707c9.295,8.33,0.585,20.547,0.585,20.547s-43.584,67.573-94.187,146.367      c-3.73-1.286-7.08-3.358-10.299-5.56L491.898,20.707z" fill="#3F456B"/></g></g><g opacity="0.25"><g><path d="M68.194,473.326l95.907,4.293c38.912,0.552,50.269-25.785,50.269-25.785l25.506-37.924      c3.592,2.577,9.217,7.145,0.496,21.017c-9.085,14.487-15.535,24.952-18.312,29.794c-20.737,36.156-59.004,30.21-59.004,30.21      l-104.291-5.657c-60.767-6.607-34.267-85.015-34.267-85.015C17.456,479.959,68.194,473.326,68.194,473.326z" fill="#3F456B"/></g></g><g opacity="0.7"><g><path d="M192.334,435.17c0,0-5.925,17.085-31.555,6.726c-25.63-10.359-85.807-34.186-85.807-34.186      s-44.056-21.186-53.297,12.115c0,0,3.549-54.429,50.891-32.886c47.341,21.542,94.777,42.762,94.777,42.762      S181.049,438.117,192.334,435.17" fill="#FFFFFF"/></g></g><g><g><path d="M167.896,500.037c-2.545,0-4.243-0.13-4.758-0.176l-108.188-6.028      c-0.498-0.033-11.031-0.818-21.519-8.642c-17.201-12.833-20.953-34.253-21.065-49.989c-0.05-1.574-0.373-18.901,8.291-38.479      c3.869-8.745,9.837-14.671,17.736-17.615c11.64-4.334,27.274-1.941,46.475,7.115c17.707,8.354,94.857,42.333,95.635,42.675      c0.085,0.037,0.168,0.077,0.25,0.118c1.773,0.863,11.147,4.67,17.609-6.885c0.061-0.107,0.124-0.212,0.191-0.314l7.216-10.932      c0.005-0.008,0.011-0.016,0.017-0.023c10.554-15.79,22.642-10.326,23.153-10.087c0.214,0.102,0.42,0.218,0.618,0.348      l16.803,11.074c2.722,1.794,4.436,4.409,4.957,7.564c1.17,7.083-4.138,14.65-5.578,16.547l-23.111,36.083      C207.965,497.389,179.358,500.037,167.896,500.037z M51.013,386.977c-3.393,0-6.437,0.5-9.126,1.502      c-5.354,1.995-9.307,6.016-12.084,12.291c-7.967,18.003-7.446,33.977-7.44,34.136c0.002,0.054,0.004,0.108,0.004,0.162      c0.297,45.703,31.879,48.682,33.223,48.786l108.194,6.028c0.065,0.004,0.132,0.009,0.197,0.015      c0.081,0.008,9.094,0.797,19.831-1.735c13.882-3.272,24.06-10.314,30.25-20.929c0.046-0.079,0.094-0.156,0.145-0.232      l1.253-1.901l21.973-34.359c0.082-0.128,0.17-0.253,0.264-0.374c1.807-2.349,4.124-6.784,3.756-8.979      c-0.05-0.296-0.121-0.529-0.593-0.84l-16.309-10.748c-1.179-0.316-5.475-0.812-10.441,6.608l-7.11,10.771      c-10.748,18.999-28.229,11.91-30.523,10.871v0.001c-0.778-0.343-78.048-34.374-95.873-42.782      C68.902,389.747,58.996,386.977,51.013,386.977z" fill="#3F456B"/></g></g><g><g><path d="M398.771,192.896c-0.915,0-1.842-0.252-2.672-0.778l-28.25-17.908c-1.134-0.718-1.931-1.861-2.212-3.174      c-0.281-1.312-0.024-2.682,0.715-3.802c48.757-73.92,92.419-140.223,94.352-143.156c3.864-6.494,14.826-16.869,29.2-10.384      c6.849,3.088,9.599,7.687,10.699,11.001c2.595,7.812-1.316,15.233-1.771,16.054c-0.052,0.092-0.105,0.183-0.162,0.271      l-95.683,149.569C402.034,192.08,400.421,192.896,398.771,192.896z M377.504,168.489l19.744,12.517l92.89-145.204      c0.651-1.279,1.991-4.974,0.96-8.001c-0.703-2.066-2.438-3.699-5.305-4.991c-9.68-4.371-15.872,5.344-16.546,6.467      c-0.036,0.059-0.087,0.142-0.125,0.199C469.122,29.476,426.231,94.608,377.504,168.489z" fill="#3F456B"/></g></g><g opacity="0.5"><g><g><path d="M93.686,413.525c-0.041,0-0.081-0.001-0.122-0.003l-69.782-3.366c-1.38-0.066-2.443-1.238-2.377-2.617       c0.066-1.38,1.262-2.436,2.617-2.377l69.782,3.366c1.38,0.066,2.443,1.238,2.377,2.617       C96.116,412.483,95.011,413.525,93.686,413.525z" fill="#3F456B"/></g></g><g><g><path d="M118.949,429.64c-0.024,0-0.049,0-0.074-0.001l-100.36-2.941c-1.38-0.041-2.466-1.192-2.426-2.572       c0.041-1.38,1.166-2.484,2.572-2.426l100.36,2.941c1.38,0.041,2.466,1.192,2.426,2.572       C121.407,428.568,120.296,429.64,118.949,429.64z" fill="#3F456B"/></g></g><g><g><path d="M137.027,446.909c-0.036,0-0.072-0.001-0.109-0.002l-118.233-5.079       c-1.379-0.06-2.449-1.226-2.391-2.605c0.06-1.38,1.204-2.425,2.605-2.391l118.233,5.079c1.379,0.06,2.449,1.226,2.391,2.605       C139.466,445.859,138.358,446.909,137.027,446.909z" fill="#3F456B"/></g></g><g><g><path d="M154.229,463.067c-0.038,0-0.075-0.001-0.113-0.003l-136.085-6.08c-1.38-0.062-2.448-1.229-2.386-2.608       c0.062-1.381,1.25-2.445,2.608-2.386l136.085,6.08c1.38,0.062,2.448,1.229,2.386,2.608       C156.665,462.021,155.559,463.067,154.229,463.067z" fill="#3F456B"/></g></g><g><g><path d="M168.335,479.861c-0.04,0-0.081-0.001-0.121-0.003l-140.196-6.7c-1.379-0.065-2.444-1.237-2.378-2.616       c0.065-1.379,1.254-2.443,2.616-2.378l140.196,6.7c1.379,0.065,2.444,1.237,2.378,2.616       C170.767,478.819,169.661,479.861,168.335,479.861z" fill="#3F456B"/></g></g></g><g><g><g><path d="M243.657,420.772c-0.93,0-1.87-0.26-2.709-0.802c-2.319-1.499-2.984-4.594-1.485-6.913l149.429-231.193       c1.499-2.319,4.595-2.983,6.913-1.485c2.319,1.499,2.984,4.594,1.485,6.913L247.861,418.485       C246.904,419.966,245.298,420.772,243.657,420.772z" fill="#3F456B"/></g></g><g><g><path d="M226.868,409.904c-0.93,0-1.87-0.26-2.709-0.802c-2.319-1.499-2.984-4.594-1.485-6.913l149.429-231.193       c1.5-2.318,4.595-2.982,6.913-1.485c2.319,1.499,2.984,4.594,1.485,6.913L231.072,407.617       C230.115,409.098,228.509,409.904,226.868,409.904z" fill="#3F456B"/></g></g></g></g><g><g><g><g><path d="M278.695,419.874c-3.672,0.439-7.446-1.183-9.59-4.496L119.676,184.185       c-3.002-4.636-1.676-10.828,2.96-13.828c4.638-3.003,10.829-1.675,13.828,2.96L285.893,404.51       c3.002,4.636,1.676,10.828-2.96,13.828C281.61,419.195,280.16,419.699,278.695,419.874z" fill="#A7AEC1"/></g></g></g></g><g><g><path d="M302.89,413.64l7.216,10.932c9.24,16.521,24.238,8.902,24.238,8.902s77.782-34.249,95.754-42.728     c25.592-12.074,47.937-13.62,57.505,8.001c8.528,19.27,7.864,36.354,7.864,36.354c-0.333,51.235-37.864,53.741-37.864,53.741     l-108.275,6.033c0,0-38.1,3.642-54.876-25.123l-1.253-1.902c-6.399-10.006-13.818-21.608-22.01-34.416     c0,0-9.435-12.141-1.966-17.063c7.468-4.922,16.804-11.074,16.804-11.074S294.607,401.249,302.89,413.64z" fill="#DAE1EA"/></g></g><g opacity="0.5"><g><polygon fill="#FFFFFF" points="357.627,422.917 334.049,495.229 397.078,491.718 428.608,393.276    "/></g></g><g opacity="0.5"><g><polygon fill="#FFFFFF" points="455.46,382.007 420.271,491.965 444.22,490.107 477.143,386.463    "/></g></g><g><g><g><path d="M420.549,291.994c-4.244-0.962-8.428-1.407-12.658-2.428c-2.484-0.599-11.068-1.645-11.209-5.302      c-0.027-0.693,0.405-1.311,0.829-1.859c3.035-3.919,6.799-7.135,10.472-10.43c0.499-0.448,3.828-3.451,6.15-5.358      c-1.915-6.907-3.817-18.138-2.502-22.576s4.922-2.134,4.922-2.134c5.287,2.026,19.737,12.943,19.737,12.943      c7.673-5.127,16.631-8.954,18.795-9.769c0.895-0.337,1.927-0.566,2.877-0.34c0.958,0.228,1.877,0.93,2.412,1.745      c0.158,0.242,0.279,0.508,0.367,0.783c0.269,0.841,0.23,1.756,0.069,2.613c-0.427,2.273-2.638,11.76-6.352,20.208      c0,0,13.264,12.331,16.179,17.185c0,0,2.896,3.152-1.246,5.218c-4.142,2.066-15.533,2.147-22.667,1.462      c-3.714,6.431-7.595,12.934-12.259,18.723c-1.081,1.341-2.661,1.791-4.076,0.608c-0.733-0.613-1.209-1.473-1.648-2.323      c-2.244-4.345-3.977-8.948-5.852-13.456c-0.392-0.943-0.783-1.887-1.175-2.83c-0.259-0.625-0.587-2.2-1.096-2.627      C420.617,292.051,420.549,291.994,420.549,291.994z" fill="#DAE1EA"/></g></g><g opacity="0.7"><g><circle cx="431.061" cy="265.654" fill="#FFFFFF" r="12.731"/></g></g><g><g><path d="M432.062,318.945c-1.712,0-3.418-0.599-4.881-1.823c-1.563-1.308-2.422-2.971-2.884-3.865      c-1.992-3.858-3.613-7.786-5.18-11.584l-0.859-2.078c-0.22-0.526-0.436-1.1-0.65-1.674c-0.17-0.454-0.339-0.908-0.513-1.325      c-0.028-0.068-0.058-0.145-0.089-0.227c-1.069-0.201-2.154-0.387-3.273-0.577c-2.269-0.387-4.614-0.786-7.015-1.365      c-0.319-0.077-0.755-0.16-1.266-0.261c-4.717-0.925-13.495-2.647-13.767-9.709c-0.098-2.567,1.332-4.415,1.87-5.111      c2.999-3.871,6.525-7.019,9.937-10.062l1.253-1.121c1.539-1.384,2.78-2.479,3.771-3.339c-1.568-6.643-3.259-16.87-1.68-22.203      c1.089-3.682,3.331-5.206,5.021-5.837c2.966-1.106,5.666-0.023,6.853,0.602c4.575,1.901,13.14,7.975,17.802,11.396      c7.12-4.331,14.514-7.515,16.811-8.38c2.053-0.776,4.002-0.955,5.8-0.524c2.146,0.51,4.179,1.955,5.432,3.865      c0.399,0.607,0.718,1.28,0.948,2c0.49,1.534,0.563,3.236,0.221,5.062c-0.453,2.41-2.303,10.245-5.329,18.011      c4.182,3.995,11.652,11.374,14.32,15.548c0.822,1.061,2.357,3.533,1.783,6.645c-0.327,1.772-1.438,4.245-4.875,5.959      c-4.917,2.453-15.099,2.595-21.914,2.221c-3.152,6.053-6.927,11.568-11.477,16.779      C436.514,317.935,434.283,318.945,432.062,318.945z M433.678,309.528h0.01H433.678z M403.209,283.388      c1.523,0.447,3.356,0.807,4.168,0.966c0.682,0.134,1.263,0.25,1.688,0.353c2.068,0.499,4.146,0.854,6.348,1.229      c2.02,0.344,4.108,0.699,6.242,1.184c0.779,0.177,1.506,0.537,2.117,1.053l0.068,0.058c1.479,1.24,2.011,2.965,2.399,4.225      c0.044,0.144,0.083,0.276,0.121,0.385c0.187,0.444,0.399,1.009,0.611,1.575c0.172,0.459,0.343,0.919,0.519,1.341l0.871,2.105      c1.349,3.268,2.632,6.378,4.12,9.415c3.883-4.772,7.074-9.851,9.722-15.454c0.9-1.906,2.914-3.031,4.998-2.842      c6.649,0.638,14.424,0.417,18.241-0.417c-2.889-3.72-10.036-10.762-14.39-14.81c-1.559-1.449-2.029-3.727-1.173-5.674      c3.006-6.839,4.994-14.497,5.742-17.825c-3.151,1.317-10.346,4.606-16.555,8.754c-1.769,1.183-4.093,1.114-5.791-0.168      c-4.743-3.582-12.922-9.396-17.087-11.594c-0.158,3.905,0.977,11.601,2.762,18.036c0.528,1.906-0.117,3.945-1.646,5.2      c-0.963,0.79-2.763,2.319-5.873,5.117l-1.283,1.146C407.664,278.964,405.285,281.086,403.209,283.388z M466.941,290.645      c0.005,0.005,0.009,0.01,0.013,0.014C466.95,290.653,466.945,290.649,466.941,290.645z M457.224,249.647L457.224,249.647      L457.224,249.647z M413.861,246.121c0.005,0.003,0.01,0.006,0.015,0.01C413.871,246.127,413.866,246.124,413.861,246.121z       M416.493,245.267L416.493,245.267L416.493,245.267z" fill="#384169"/></g></g></g><g><g><g><path d="M60.892,246.618c-1.935,3.898-3.352,7.86-5.341,11.731c-1.167,2.273-4.205,10.369-7.792,9.645      c-0.68-0.137-1.179-0.702-1.612-1.244c-3.094-3.873-5.333-8.288-7.671-12.634c-0.318-0.591-2.453-4.533-3.759-7.239      c-7.163,0.235-18.526-0.562-22.53-2.885c-4.004-2.322-0.915-5.286-0.915-5.286c3.214-4.661,17.227-16.134,17.227-16.134      c-3.175-8.665-4.785-18.272-5.068-20.567c-0.117-0.949-0.097-2.006,0.347-2.876c0.447-0.877,1.346-1.605,2.264-1.933      c0.272-0.097,0.559-0.151,0.847-0.172c0.881-0.063,1.76,0.19,2.556,0.549c2.108,0.95,10.808,5.333,18.143,10.932      c0,0,15.108-9.987,20.512-11.676c0,0,3.746-2.073,4.778,2.44c1.032,4.512-1.571,15.601-3.917,22.374      c5.375,5.124,10.782,10.428,15.31,16.323c1.049,1.366,1.114,3.008-0.369,4.105c-0.769,0.568-1.717,0.828-2.645,1.054      c-4.751,1.157-9.633,1.757-14.456,2.519c-1.009,0.159-2.018,0.317-3.027,0.476c-0.668,0.105-2.276,0.052-2.811,0.446      C60.963,246.565,60.892,246.618,60.892,246.618z" fill="#DAE1EA"/></g></g><g opacity="0.7"><g><circle cx="37.768" cy="230.198" fill="#FFFFFF" r="12.731"/></g></g><g><g><path d="M48.326,273.054c-0.501,0-1.02-0.051-1.558-0.159c-2.521-0.511-3.979-2.339-4.529-3.026      c-3.051-3.817-5.277-7.982-7.43-12.011l-0.831-1.55c-0.891-1.652-1.668-3.121-2.325-4.395      c-6.826-0.041-17.164-0.806-21.975-3.596c-3.321-1.927-4.275-4.465-4.49-6.254c-0.378-3.142,1.311-5.514,2.197-6.52      c2.925-3.997,10.845-10.892,15.27-14.616c-2.535-7.946-3.887-15.879-4.187-18.312c-0.269-2.179,0.019-4.116,0.854-5.756      c1.005-1.972,2.889-3.605,5.038-4.373c0.694-0.246,1.422-0.396,2.172-0.45c1.601-0.114,3.27,0.213,4.966,0.977      c2.239,1.01,9.419,4.653,16.251,9.422c4.868-3.123,13.799-8.646,18.482-10.255c1.224-0.549,3.988-1.459,6.878-0.168      c1.646,0.735,3.787,2.397,4.644,6.141c1.226,5.358-1.036,15.285-3.003,21.821c5.14,4.487,9.611,9.455,13.604,15.105      c2.667,3.776,2.044,8.407-1.482,11.012c-1.634,1.209-3.453,1.652-4.431,1.891c-4.214,1.026-8.403,1.676-12.454,2.303      l-2.248,0.351c-0.565,0.09-1.175,0.164-1.784,0.238c-0.481,0.058-0.962,0.115-1.408,0.185c-0.072,0.012-0.152,0.022-0.238,0.033      c-0.448,0.992-0.883,2.002-1.331,3.045c-0.91,2.114-1.851,4.301-2.979,6.497c-0.15,0.293-0.334,0.697-0.552,1.17      C57.594,265.829,54.267,273.054,48.326,273.054z M34.719,241.877c1.914,0,3.666,1.095,4.502,2.826      c0.771,1.6,1.97,3.908,3.562,6.862l0.846,1.578c1.569,2.935,3.07,5.743,4.816,8.3c0.793-1.375,1.574-3.071,1.92-3.823      c0.291-0.631,0.541-1.168,0.74-1.557c0.973-1.893,1.806-3.83,2.688-5.88c0.81-1.883,1.647-3.829,2.62-5.789      c0.363-0.733,0.901-1.366,1.567-1.843l0.072-0.052c1.504-1.111,3.308-1.223,4.624-1.305c0.149-0.009,0.288-0.016,0.401-0.027      c0.479-0.077,1.077-0.15,1.677-0.223c0.487-0.059,0.975-0.116,1.426-0.188l2.277-0.355c3.483-0.54,6.801-1.054,10.095-1.783      c-3.725-4.897-7.907-9.195-12.729-13.086c-1.642-1.324-2.275-3.536-1.585-5.528c2.186-6.311,3.803-13.919,3.891-17.826      c-4.296,1.932-12.823,7.219-17.782,10.496c-1.773,1.173-4.098,1.097-5.79-0.196c-5.937-4.53-12.914-8.268-15.973-9.778      c0.537,3.367,2.038,11.132,4.61,18.15c0.732,1.998,0.12,4.241-1.526,5.589c-4.6,3.767-12.176,10.346-15.293,13.877      c3.757,1.073,11.501,1.779,18.18,1.563C34.609,241.878,34.664,241.877,34.719,241.877z M14.748,242.3      c-0.005,0.004-0.009,0.009-0.014,0.013C14.739,242.309,14.743,242.305,14.748,242.3z M70.521,201.203      c-0.005,0.003-0.011,0.006-0.017,0.01C70.512,201.209,70.517,201.206,70.521,201.203z" fill="#384169"/></g></g></g><g opacity="0.5"><g><g><g><path d="M481.466,191.837c-1.279,0-2.56-0.488-3.536-1.465c-1.952-1.952-1.952-5.118,0.001-7.071l8.018-8.017       c1.953-1.951,5.118-1.952,7.071,0.001c1.952,1.952,1.952,5.118-0.001,7.071l-8.018,8.017       C484.024,191.349,482.745,191.837,481.466,191.837z" fill="#3F456B"/></g></g><g><g><path d="M454.104,219.18c-1.279,0-2.56-0.488-3.535-1.465c-1.953-1.952-1.953-5.118,0-7.07l8.017-8.017       c1.951-1.953,5.119-1.953,7.07,0c1.953,1.952,1.953,5.118,0,7.07l-8.017,8.017C456.663,218.691,455.383,219.18,454.104,219.18z       " fill="#3F456B"/></g></g></g><g><g><g><path d="M489.473,219.19c-1.279,0-2.56-0.488-3.536-1.465l-8.017-8.018c-1.952-1.952-1.952-5.118,0.001-7.071       c1.953-1.951,5.118-1.952,7.071,0.001l8.017,8.018c1.952,1.952,1.952,5.118-0.001,7.071       C492.031,218.702,490.752,219.19,489.473,219.19z" fill="#3F456B"/></g></g><g><g><path d="M462.13,191.827c-1.279,0-2.56-0.488-3.536-1.465l-8.017-8.018c-1.952-1.952-1.952-5.118,0.001-7.071       c1.953-1.951,5.118-1.952,7.071,0.001l8.017,8.018c1.952,1.952,1.952,5.118-0.001,7.071       C464.688,191.339,463.409,191.827,462.13,191.827z" fill="#3F456B"/></g></g></g></g><g opacity="0.5"><g><g><g><path d="M57.466,336.837c-1.279,0-2.56-0.488-3.536-1.465c-1.952-1.952-1.952-5.118,0.001-7.071l8.018-8.017       c1.953-1.951,5.118-1.952,7.071,0.001c1.952,1.952,1.952,5.118-0.001,7.071l-8.018,8.017       C60.024,336.349,58.745,336.837,57.466,336.837z" fill="#3F456B"/></g></g><g><g><path d="M30.104,364.18c-1.279,0-2.56-0.488-3.535-1.465c-1.953-1.952-1.953-5.118,0-7.07l8.017-8.017       c1.951-1.953,5.119-1.953,7.07,0c1.953,1.952,1.953,5.118,0,7.07l-8.017,8.017C32.663,363.691,31.383,364.18,30.104,364.18z" fill="#3F456B"/></g></g></g><g><g><g><path d="M65.473,364.19c-1.279,0-2.56-0.488-3.536-1.465l-8.017-8.018c-1.952-1.952-1.952-5.118,0.001-7.071       c1.953-1.951,5.118-1.952,7.071,0.001l8.017,8.018c1.952,1.952,1.952,5.118-0.001,7.071       C68.031,363.702,66.752,364.19,65.473,364.19z" fill="#3F456B"/></g></g><g><g><path d="M38.13,336.827c-1.279,0-2.56-0.488-3.536-1.465l-8.017-8.018c-1.952-1.952-1.952-5.118,0.001-7.071       c1.953-1.951,5.118-1.952,7.071,0.001l8.017,8.018c1.952,1.952,1.952,5.118-0.001,7.071       C40.688,336.339,39.409,336.827,38.13,336.827z" fill="#3F456B"/></g></g></g></g><g opacity="0.7"><g><g><g><g><path d="M256.863,46.403c-2.747,0-4.982-2.219-4.999-4.971l-0.08-13.54c-0.017-2.761,2.209-5.013,4.971-5.029        c0.01,0,0.02,0,0.03,0c2.747,0,4.982,2.219,4.999,4.971l0.08,13.54c0.017,2.761-2.209,5.013-4.971,5.029        C256.884,46.403,256.874,46.403,256.863,46.403z" fill="#3F456B"/></g></g></g><g><g><g><path d="M298.351,86.891c-2.744,0-4.979-2.215-4.999-4.964c-0.02-2.761,2.202-5.016,4.964-5.036l13-0.095        c0.012,0,0.024,0,0.037,0c2.744,0,4.979,2.215,4.999,4.964c0.02,2.761-2.202,5.016-4.964,5.036l-13,0.095        C298.376,86.891,298.363,86.891,298.351,86.891z" fill="#3F456B"/></g></g></g><g><g><g><path d="M292.598,66.438c-1.718,0-3.391-0.886-4.32-2.476c-1.395-2.384-0.593-5.446,1.79-6.841l11.537-6.75        c2.385-1.396,5.446-0.594,6.841,1.79s0.593,5.446-1.79,6.841l-11.537,6.75C294.324,66.217,293.455,66.438,292.598,66.438z" fill="#3F456B"/></g></g></g><g><g><g><path d="M277.565,51.729c-0.839,0-1.688-0.212-2.47-0.656c-2.399-1.367-3.236-4.42-1.87-6.819l6.667-11.705        c1.367-2.398,4.42-3.234,6.819-1.87c2.399,1.367,3.236,4.42,1.87,6.819l-6.667,11.705        C280.993,50.821,279.304,51.729,277.565,51.729z" fill="#3F456B"/></g></g></g></g><g><g><g><g><path d="M256.945,45.081c-2.744,0-4.978-2.214-4.999-4.962L251.854,27.9c-0.021-2.762,2.201-5.017,4.962-5.038        c2.812-0.016,5.018,2.202,5.038,4.962l0.093,12.219c0.021,2.762-2.201,5.017-4.962,5.038        C256.972,45.081,256.958,45.081,256.945,45.081z" fill="#3F456B"/></g></g></g><g><g><g><path d="M235.783,50.627c-1.718,0-3.391-0.886-4.32-2.476l-6.294-10.757c-1.395-2.384-0.593-5.446,1.79-6.841        c2.385-1.396,5.446-0.594,6.841,1.79l6.294,10.757c1.395,2.384,0.593,5.446-1.79,6.841        C237.51,50.406,236.641,50.627,235.783,50.627z" fill="#3F456B"/></g></g></g><g><g><g><path d="M221.064,66.168c-0.839,0-1.688-0.212-2.47-0.656l-11.246-6.406c-2.399-1.367-3.236-4.42-1.87-6.819        c1.367-2.399,4.42-3.235,6.819-1.87l11.246,6.406c2.399,1.367,3.236,4.42,1.87,6.819        C224.492,65.26,222.803,66.168,221.064,66.168z" fill="#3F456B"/></g></g></g><g><g><g><path d="M202.916,86.686c-2.744,0-4.979-2.215-4.999-4.964c-0.02-2.761,2.202-5.016,4.964-5.036l12.999-0.095        c0.012,0,0.024,0,0.037,0c2.744,0,4.979,2.215,4.999,4.964c0.02,2.761-2.202,5.016-4.964,5.036l-12.999,0.095        C202.941,86.686,202.929,86.686,202.916,86.686z" fill="#3F456B"/></g></g></g></g></g><g id="XMLID_67_"><g><g><path d="M141.58,170.447c-9.337,5.466-18.606,11.416-27.955,16.781c-52.123-81.497-95.246-148.9-95.246-148.9      s-7.586-13.679,6.605-20.074c14.189-6.406,22.903,8.472,22.903,8.472s44.559,67.662,94.441,143.283      c-0.163,0.091-0.326,0.193-0.489,0.284L141.58,170.447z" fill="#767C93"/></g></g></g><g opacity="0.3"><g><path d="M20.935,20.707c-9.295,8.33-0.585,20.547-0.585,20.547s43.584,67.573,94.187,146.367     c3.73-1.286,7.08-3.358,10.299-5.56L20.935,20.707z" fill="#3F456B"/></g></g><g opacity="0.25"><g><path d="M444.639,473.326l-95.907,4.293c-38.912,0.552-50.269-25.785-50.269-25.785l-25.506-37.924     c-3.592,2.577-9.217,7.145-0.496,21.017c9.085,14.487,15.535,24.952,18.312,29.794c20.737,36.156,59.004,30.21,59.004,30.21     l104.291-5.657c60.767-6.607,34.267-85.015,34.267-85.015C495.377,479.959,444.639,473.326,444.639,473.326z" fill="#3F456B"/></g></g><g opacity="0.7"><g><path d="M320.5,435.17c0,0,5.925,17.085,31.555,6.726c25.63-10.359,85.807-34.186,85.807-34.186     s44.056-21.186,53.297,12.115c0,0-3.549-54.429-50.891-32.886C392.926,408.48,345.49,429.7,345.49,429.7     S331.785,438.117,320.5,435.17" fill="#FFFFFF"/></g></g><g opacity="0.3"><g><path d="M171.38,396.1L171.38,396.1c-1.14-2.52-0.04-5.479,2.479-6.63l0,0c2.511-1.15,5.471-0.04,6.62,2.47l0,0     c1.141,2.521,0.04,5.48-2.47,6.63l0,0c-0.68,0.311-1.38,0.45-2.08,0.45l0,0C174.04,399.02,172.22,397.939,171.38,396.1z      M162.609,378.51c-1.31-2.42-0.409-5.46,2.021-6.77l0,0c2.43-1.32,5.46-0.41,6.78,2.02l0,0c1.31,2.42,0.399,5.46-2.021,6.771l0,0     c-0.76,0.409-1.57,0.609-2.38,0.609l0,0C165.24,381.13,163.52,380.189,162.609,378.51z M152.7,361.479     c-1.46-2.34-0.74-5.42,1.609-6.88l0,0c2.34-1.46,5.42-0.74,6.88,1.601l0,0l0,0l0,0c1.46,2.34,0.74,5.43-1.6,6.89l0,0     c-0.82,0.51-1.74,0.75-2.64,0.75l0,0C155.28,363.84,153.649,363.01,152.7,361.479z M141.81,345.04L141.81,345.04     c-1.59-2.271-1.04-5.38,1.221-6.971l0,0c2.26-1.59,5.38-1.039,6.96,1.221l0,0l0,0l0,0c1.59,2.26,1.04,5.38-1.221,6.96l0,0     c-0.87,0.62-1.87,0.91-2.87,0.91l0,0C144.33,347.16,142.78,346.42,141.81,345.04z M130.05,329.16L130.05,329.16     c-1.7-2.181-1.32-5.32,0.86-7.021l0,0c2.18-1.7,5.319-1.31,7.02,0.87l0,0l0,0l0,0c1.7,2.17,1.311,5.32-0.87,7.01l0,0     c-0.91,0.721-1.99,1.061-3.069,1.061l0,0C132.5,331.08,131.03,330.42,130.05,329.16z M117.51,313.859L117.51,313.859     c-1.8-2.09-1.56-5.25,0.53-7.05l0,0c2.1-1.8,5.26-1.56,7.06,0.53l0,0c0,0,0,0,0,0.01l0,0c1.8,2.09,1.561,5.25-0.54,7.05l0,0     c-0.939,0.811-2.1,1.2-3.25,1.2l0,0C119.899,315.6,118.5,315.01,117.51,313.859z M104.27,299.16c-1.89-2.011-1.8-5.181,0.21-7.07     l0,0c2.011-1.9,5.17-1.8,7.07,0.21l0,0c1.89,2.01,1.8,5.17-0.21,7.06l0,0c-0.96,0.91-2.2,1.37-3.43,1.37l0,0     C106.58,300.729,105.26,300.2,104.27,299.16z M90.37,285.08L90.37,285.08c-1.99-1.92-2.04-5.08-0.13-7.07l0,0     c1.92-1.99,5.09-2.04,7.069-0.13l0,0c1.99,1.92,2.05,5.08,0.13,7.07l0,0c-0.979,1.02-2.29,1.529-3.6,1.529l0,0     C92.59,286.479,91.34,286.02,90.37,285.08z M75.83,271.859v0.011c-2.141-1.761-2.45-4.91-0.69-7.04l0,0     c1.74-2.141,4.9-2.45,7.03-0.69l0,0l0,0l0,0c2.14,1.75,2.45,4.9,0.689,7.03l0,0C81.87,272.38,80.439,273,79,273l0,0     C77.88,273,76.76,272.63,75.83,271.859z" fill="#384169"/></g></g><g opacity="0.3"><g><path d="M337.229,396.64c-2.52-1.12-3.66-4.08-2.54-6.6l0,0c1.11-2.53,4.07-3.67,6.591-2.55l0,0     c2.529,1.119,3.67,4.079,2.55,6.6l0,0l0,0l0,0c-0.83,1.87-2.66,2.979-4.58,2.979l0,0     C338.58,397.069,337.89,396.93,337.229,396.64z M345.74,378.54c-2.421-1.34-3.29-4.391-1.95-6.8l0,0     c1.34-2.421,4.38-3.29,6.8-1.95l0,0c2.41,1.34,3.28,4.38,1.94,6.8l0,0c-0.91,1.64-2.61,2.57-4.37,2.57l0,0     C347.34,379.16,346.51,378.96,345.74,378.54z M355.819,361.26c-2.279-1.55-2.88-4.66-1.329-6.94l0,0     c1.55-2.289,4.659-2.88,6.939-1.34l0,0c2.29,1.551,2.89,4.66,1.34,6.95l0,0c-0.97,1.42-2.54,2.19-4.149,2.19l0,0     C357.66,362.12,356.68,361.84,355.819,361.26z M367.42,344.96c-2.14-1.75-2.45-4.9-0.69-7.03h-0.01c1.76-2.14,4.9-2.45,7.04-0.7     l0,0c2.13,1.75,2.45,4.9,0.7,7.04l0,0c-0.99,1.2-2.43,1.82-3.87,1.82l0,0C369.47,346.09,368.35,345.72,367.42,344.96z      M380.47,329.79c-1.95-1.95-1.96-5.11-0.01-7.07h0.01c1.95-1.95,5.11-1.95,7.07,0l0,0c1.95,1.95,1.95,5.11,0,7.07l0,0l0,0l0,0     c-0.98,0.979-2.26,1.46-3.54,1.46l0,0C382.72,331.25,381.439,330.77,380.47,329.79z M394.93,315.91     c-1.6-2.25-1.08-5.38,1.16-6.98l0,0c2.25-1.6,5.37-1.08,6.979,1.16l0,0c1.601,2.25,1.08,5.37-1.159,6.979l0,0     C401.02,317.7,400.01,318,399,318l0,0C397.439,318,395.91,317.27,394.93,315.91z" fill="#384169"/></g></g></g><g id="Lines"><g><g><g><ellipse cx="255.193" cy="163.072" fill="#F5F6F7" rx="68.644" ry="68.645" transform="matrix(0.2859 -0.9583 0.9583 0.2859 25.968 360.9911)"/></g></g><g opacity="0.15"><g><path d="M315.537,128.226c19.648,32.976,8.844,75.637-24.133,95.285c-32.977,19.648-75.637,8.843-95.285-24.133      c0,0,38.347,37.107,87.479,7.834C329.738,179.72,315.537,128.226,315.537,128.226z" fill="#3F456B"/></g></g><g><g><path d="M265.914,143.868c-4.566,18.027-22.88,28.939-40.906,24.374c-18.026-4.566-28.939-22.88-24.374-40.907      c4.566-18.026,22.881-28.938,40.908-24.372C259.568,107.529,270.479,125.842,265.914,143.868z" fill="#FFFFFF"/></g></g><g><g><path d="M255.186,236.725c-5.97,0-12.028-0.731-18.073-2.263c-19.069-4.829-35.116-16.796-45.186-33.694      c-10.068-16.898-12.954-36.707-8.124-55.776c4.829-19.069,16.796-35.116,33.695-45.185c16.898-10.07,36.705-12.955,55.776-8.125      c39.364,9.971,63.278,50.107,53.309,89.472l0,0C318.144,214.473,288.088,236.725,255.186,236.725z M255.2,99.42      c-28.438,0-54.41,19.229-61.704,48.026c-4.174,16.479-1.68,33.599,7.021,48.203c8.701,14.604,22.569,24.945,39.05,29.119      c34.013,8.612,68.705-12.051,77.322-46.07c8.615-34.02-12.052-68.706-46.07-77.323C265.597,100.053,260.356,99.42,255.2,99.42z       M321.736,179.926h0.01H321.736z" fill="#3F456B"/></g></g><g opacity="0.2"><g><g><g><path d="M290.968,106.608c0,3.53-2.859,6.392-6.393,6.392c-3.528,0-6.39-2.862-6.39-6.392        s2.862-6.393,6.39-6.393C288.108,100.215,290.968,103.078,290.968,106.608z" fill="#3F456B"/></g></g><g><g><path d="M261.942,106.608c0,3.53-2.86,6.392-6.392,6.392c-3.53,0-6.392-2.862-6.392-6.392        s2.862-6.393,6.392-6.393C259.082,100.215,261.942,103.078,261.942,106.608z" fill="#3F456B"/></g></g><g><g><path d="M232.915,106.608c0,3.53-2.86,6.392-6.392,6.392c-3.529,0-6.391-2.862-6.391-6.392        s2.862-6.393,6.391-6.393C230.055,100.215,232.915,103.078,232.915,106.608z" fill="#3F456B"/></g></g></g><g><g><g><path d="M305.968,135.608c0,3.53-2.859,6.392-6.393,6.392c-3.528,0-6.39-2.862-6.39-6.392        s2.862-6.393,6.39-6.393C303.108,129.215,305.968,132.078,305.968,135.608z" fill="#3F456B"/></g></g><g><g><path d="M218.889,135.608c0,3.53-2.86,6.392-6.392,6.392c-3.53,0-6.392-2.862-6.392-6.392        s2.862-6.393,6.392-6.393C216.03,129.215,218.889,132.078,218.889,135.608z" fill="#3F456B"/></g></g><g><g><path d="M276.942,135.608c0,3.53-2.86,6.392-6.392,6.392c-3.53,0-6.392-2.862-6.392-6.392        s2.862-6.393,6.392-6.393C274.082,129.215,276.942,132.078,276.942,135.608z" fill="#3F456B"/></g></g><g><g><path d="M247.915,135.608c0,3.53-2.86,6.392-6.392,6.392c-3.529,0-6.391-2.862-6.391-6.392        s2.862-6.393,6.391-6.393C245.055,129.215,247.915,132.078,247.915,135.608z" fill="#3F456B"/></g></g></g><g><g><g><path d="M290.968,164.608c0,3.53-2.859,6.392-6.393,6.392c-3.528,0-6.39-2.862-6.39-6.392        s2.862-6.393,6.39-6.393C288.108,158.215,290.968,161.078,290.968,164.608z" fill="#3F456B"/></g></g><g><g><path d="M203.889,164.608c0,3.53-2.86,6.392-6.392,6.392c-3.53,0-6.392-2.862-6.392-6.392        s2.862-6.393,6.392-6.393C201.03,158.215,203.889,161.078,203.889,164.608z" fill="#3F456B"/></g></g><g><g><path d="M261.942,164.608c0,3.53-2.86,6.392-6.392,6.392c-3.53,0-6.392-2.862-6.392-6.392        s2.862-6.393,6.392-6.393C259.082,158.215,261.942,161.078,261.942,164.608z" fill="#3F456B"/></g></g><g><g><path d="M232.915,164.608c0,3.53-2.86,6.392-6.392,6.392c-3.529,0-6.391-2.862-6.391-6.392        s2.862-6.393,6.391-6.393C230.055,158.215,232.915,161.078,232.915,164.608z" fill="#3F456B"/></g></g><g><g><path d="M319.994,164.608c0,3.53-2.86,6.392-6.392,6.392c-3.53,0-6.392-2.862-6.392-6.392        s2.862-6.393,6.392-6.393C317.135,158.215,319.994,161.078,319.994,164.608z" fill="#3F456B"/></g></g></g><g><g><g><path d="M305.968,193.608c0,3.53-2.859,6.392-6.393,6.392c-3.528,0-6.39-2.862-6.39-6.392        s2.862-6.393,6.39-6.393C303.108,187.215,305.968,190.078,305.968,193.608z" fill="#3F456B"/></g></g><g><g><path d="M218.889,193.608c0,3.53-2.86,6.392-6.392,6.392c-3.53,0-6.392-2.862-6.392-6.392        s2.862-6.393,6.392-6.393C216.03,187.215,218.889,190.078,218.889,193.608z" fill="#3F456B"/></g></g><g><g><path d="M276.942,193.608c0,3.53-2.86,6.392-6.392,6.392c-3.53,0-6.392-2.862-6.392-6.392        s2.862-6.393,6.392-6.393C274.082,187.215,276.942,190.078,276.942,193.608z" fill="#3F456B"/></g></g><g><g><path d="M247.915,193.608c0,3.53-2.86,6.392-6.392,6.392c-3.529,0-6.391-2.862-6.391-6.392        s2.862-6.393,6.391-6.393C245.055,187.215,247.915,190.078,247.915,193.608z" fill="#3F456B"/></g></g></g><g><g><g><path d="M290.968,222.608c0,3.53-2.859,6.392-6.393,6.392c-3.528,0-6.39-2.862-6.39-6.392        s2.862-6.393,6.39-6.393C288.108,216.215,290.968,219.078,290.968,222.608z" fill="#3F456B"/></g></g><g><g><path d="M261.942,222.608c0,3.53-2.86,6.392-6.392,6.392c-3.53,0-6.392-2.862-6.392-6.392        s2.862-6.393,6.392-6.393C259.082,216.215,261.942,219.078,261.942,222.608z" fill="#3F456B"/></g></g><g><g><path d="M232.915,222.608c0,3.53-2.86,6.392-6.392,6.392c-3.529,0-6.391-2.862-6.391-6.392        s2.862-6.393,6.391-6.393C230.055,216.215,232.915,219.078,232.915,222.608z" fill="#3F456B"/></g></g></g></g></g><g><g><path d="M344.938,500.037c-11.461,0-40.067-2.646-54.733-27.646l-1.18-1.79l-21.932-34.293     c-1.44-1.896-6.748-9.464-5.578-16.547c0.521-3.155,2.236-5.771,4.958-7.564l16.802-11.074c0.198-0.13,0.404-0.246,0.618-0.348     c0.512-0.238,12.601-5.701,23.154,10.086c0.006,0.009,0.012,0.017,0.017,0.024l7.216,10.932c0.067,0.103,0.131,0.207,0.191,0.314     c2.958,5.29,6.682,7.937,11.384,8.09c3.465,0.129,6.2-1.191,6.226-1.205c0.082-0.041,0.165-0.081,0.25-0.118     c0.777-0.342,77.927-34.32,95.636-42.675c19.198-9.058,34.832-11.453,46.473-7.115c7.899,2.943,13.867,8.87,17.737,17.615     c8.665,19.583,8.341,36.913,8.291,38.48c-0.112,15.736-3.864,37.155-21.065,49.988c-10.487,7.823-21.021,8.608-21.464,8.639     l-108.242,6.031C349.181,499.907,347.48,500.037,344.938,500.037z M288.33,409.767l-16.354,10.779     c-0.434,0.285-0.537,0.5-0.594,0.846c-0.368,2.228,1.944,6.644,3.756,8.974c0.094,0.121,0.182,0.246,0.264,0.374l22.01,34.417     l1.216,1.844c0.051,0.076,0.099,0.153,0.145,0.232c14.992,25.705,49.732,22.699,50.082,22.664     c0.065-0.006,0.132-0.011,0.197-0.015l108.275-6.033c1.263-0.1,32.845-3.078,33.142-48.781c0-0.054,0.002-0.107,0.004-0.162     c0.005-0.151,0.473-16.254-7.44-34.136c-2.777-6.275-6.73-10.296-12.085-12.291c-9.016-3.36-22.043-1.076-38.714,6.789     c-17.826,8.408-95.095,42.439-95.873,42.782v-0.001c-2.295,1.037-19.775,8.129-30.523-10.871l-7.112-10.774     C293.685,408.877,289.243,409.528,288.33,409.767z" fill="#3F456B"/></g></g><g><g><path d="M114.062,192.896c-1.649,0-3.263-0.815-4.217-2.307L14.163,41.02c-0.057-0.089-0.11-0.18-0.162-0.271     c-0.454-0.82-4.365-8.242-1.771-16.055c1.101-3.313,3.851-7.912,10.698-11c14.375-6.481,25.335,3.89,29.201,10.384     c1.932,2.934,45.594,69.236,94.352,143.156c0.739,1.12,0.996,2.49,0.715,3.802c-0.281,1.312-1.078,2.456-2.212,3.174     l-28.25,17.908C115.904,192.644,114.978,192.896,114.062,192.896z M22.702,35.811l92.884,145.195l19.744-12.517     C86.602,94.608,43.711,29.476,43.711,29.476c-0.048-0.073-0.094-0.146-0.138-0.222c-0.661-1.101-6.853-10.812-16.533-6.445     c-2.866,1.293-4.601,2.925-5.304,4.991C20.711,30.812,22.031,34.485,22.702,35.811z" fill="#3F456B"/></g></g><g opacity="0.5"><g><g><path d="M419.147,413.525c-1.325,0-2.431-1.041-2.495-2.38c-0.066-1.379,0.997-2.551,2.377-2.617l69.782-3.366      c1.419-0.067,2.551,0.998,2.617,2.377s-0.997,2.551-2.377,2.617l-69.782,3.366C419.229,413.524,419.188,413.525,419.147,413.525      z" fill="#3F456B"/></g></g><g><g><path d="M393.884,429.64c-1.347,0-2.458-1.071-2.498-2.427c-0.04-1.38,1.046-2.531,2.426-2.572l100.361-2.941      c0.025-0.001,0.05-0.001,0.074-0.001c1.347,0,2.458,1.071,2.498,2.427c0.04,1.38-1.046,2.531-2.426,2.572l-100.361,2.941      C393.933,429.64,393.908,429.64,393.884,429.64z" fill="#3F456B"/></g></g><g><g><path d="M375.807,446.909c-1.331,0-2.438-1.05-2.496-2.393c-0.059-1.38,1.012-2.546,2.391-2.605l118.233-5.079      c1.411-0.038,2.547,1.011,2.605,2.391s-1.012,2.546-2.391,2.605l-118.233,5.079      C375.879,446.908,375.843,446.909,375.807,446.909z" fill="#3F456B"/></g></g><g><g><path d="M358.604,463.067c-1.329,0-2.436-1.047-2.495-2.389c-0.062-1.379,1.006-2.547,2.386-2.608l136.085-6.08      c1.356-0.062,2.547,1.005,2.608,2.386c0.062,1.379-1.006,2.547-2.386,2.608l-136.085,6.08      C358.679,463.066,358.642,463.067,358.604,463.067z" fill="#3F456B"/></g></g><g><g><path d="M344.499,479.861c-1.326,0-2.432-1.042-2.495-2.381c-0.066-1.379,0.999-2.551,2.378-2.616l140.196-6.7      c1.359-0.068,2.551,0.999,2.616,2.378c0.066,1.379-0.999,2.551-2.378,2.616l-140.196,6.7      C344.58,479.86,344.539,479.861,344.499,479.861z" fill="#3F456B"/></g></g></g><g><g><g><path d="M269.176,420.772c-1.641,0-3.247-0.807-4.204-2.287L115.544,187.292      c-1.499-2.319-0.834-5.414,1.485-6.913c2.32-1.498,5.414-0.834,6.913,1.485L273.37,413.058c1.499,2.319,0.834,5.414-1.485,6.913      C271.046,420.513,270.105,420.772,269.176,420.772z" fill="#3F456B"/></g></g><g><g><path d="M285.965,409.904c-1.641,0-3.247-0.807-4.204-2.287L132.333,176.424      c-1.499-2.319-0.834-5.414,1.485-6.913c2.319-1.497,5.414-0.833,6.913,1.485l149.428,231.193      c1.499,2.319,0.834,5.414-1.485,6.913C287.835,409.645,286.895,409.904,285.965,409.904z" fill="#3F456B"/></g></g></g><g><g><path d="M256,286c-2.762,0-5-2.238-5-5v-48c0-2.762,2.238-5,5-5s5,2.238,5,5v48C261,283.762,258.762,286,256,286z     " fill="#3F456B"/></g></g></g></svg>