<?xml version="1.0" ?><svg enable-background="new 0 0 512 512" version="1.1" viewBox="0 0 512 512" xml:space="preserve" xmlns="http://www.w3.org/2000/svg" xmlns:xlink="http://www.w3.org/1999/xlink"><g id="Colors"><g opacity="0.5"><g><g><path d="M269.22,16.112c-71.141-0.915-140.71,41.164-165.399,121.562c-12.338,40.178,3.479,84.674-29.09,117.858      c-15.204,15.491-32.638,28.004-43.31,47.259c-28.059,50.628-14.576,116.134,34.564,148.3      c39.968,26.163,90.985,33.935,137.935,36.265c8.529,0.423,17.068,0.626,25.608,0.626c67.893,0,144.813-1.322,204.978-36.898      c26.507-15.674,48.14-39.342,55.883-69.505c27.416-106.807-21.398-239.436-98.925-314.61      C356.707,33.268,312.67,16.671,269.22,16.112z" fill="#8DD3B7"/></g></g><g><g><path d="M121.066,475.271C212,502,256.989,477.324,273,436c19.252-49.689-27.393-135.162-94-157      C64,236,31,303,31,303s-32.479,62.968,4.261,117.484C35.261,420.484,69.431,460.093,121.066,475.271z" fill="#8BD0F7"/></g></g><g><g><path d="M250.297,66.147c-34.021,1.671-64.756,18.764-75.673,56.801c-17.037,59.361,50.045,91.645,75.6,95.811      c25.555,4.166,40.462,31.243,23.425,53.113s-13.842,60.403,31.944,61.444s76.665-19.787,80.924-102.059      c2.027-39.148-3.373-81.133-27.714-113.483C333.672,84.371,292.9,64.055,250.297,66.147z" fill="#F2C291"/></g></g><g opacity="0.2"><g><path d="M279.398,265c0,0-22.398,55,30.602,53s76.186-66,76.093-93.5c0,0,9.907,115.5-80.093,108.5      C306,333,232.796,328,279.398,265z" fill="#FFFFFF"/></g></g><g opacity="0.2"><g><path d="M176.5,157c0,0,1.5-73,79.5-72s122.186,67.9,130.093,111.45c0,0-0.094-107.443-114.094-129.446      C272,67.003,162,57,176.5,157z" fill="#3F456B"/></g></g><g><g><path d="M308.778,338.353c-1.087,0-2.186-0.013-3.298-0.038c-12.043-0.274-33.603-3.592-42.687-22.733      c-6.688-14.091-3.909-32.891,6.912-46.782c6.32-8.113,7.905-17.415,4.464-26.191c-3.845-9.805-13.328-17.052-24.75-18.914      c-19.637-3.2-54.96-19.807-72.007-46.705c-10.733-16.936-13.288-35.581-7.594-55.419c10.448-36.404,39.691-58.425,80.233-60.416      l0,0c21.533-1.051,43.392,3.437,63.222,12.992c19.462,9.38,36.589,23.427,49.526,40.622      c21.577,28.678,31.237,67.957,28.712,116.748c-2.091,40.382-10.656,68.31-26.185,85.378      C352.044,331.493,334.016,338.352,308.778,338.353z M250.542,71.142c-16.834,0.826-32.012,5.625-43.894,13.876      c-13.207,9.172-22.364,22.397-27.218,39.31c-4.872,16.974-2.708,32.89,6.429,47.308c16.857,26.599,51.186,39.91,65.17,42.189      c14.889,2.427,27.323,12.058,32.45,25.133c4.713,12.02,2.568,25.136-5.885,35.987c-8.556,10.982-10.873,25.59-5.767,36.349      c5.102,10.749,16.816,16.636,33.879,17.023c23.885,0.542,40.461-5.225,52.223-18.152c13.911-15.29,21.629-41.186,23.596-79.166      c2.4-46.384-6.588-83.467-26.716-110.219C330.302,88.207,290.35,69.197,250.542,71.142L250.542,71.142z" fill="#3F456B"/></g></g><g><g><path d="M229.527,492.982c-8.703,0-17.402-0.213-25.855-0.633c-38.918-1.932-95.818-7.876-140.425-37.075      C13.027,422.4-2.874,354.356,27.048,300.367c8.078-14.575,19.838-25.468,31.212-36.002c4.295-3.979,8.737-8.092,12.902-12.336      c19.283-19.647,20.444-43.812,21.673-69.394c0.734-15.283,1.494-31.086,6.206-46.43c12.038-39.201,35.276-71.674,67.202-93.908      c29.985-20.885,65.633-31.633,103.041-31.187l0,0c46.894,0.604,91.521,19.167,125.659,52.269      c39.251,38.059,71.243,90.429,90.084,147.463c20.008,60.569,23.537,120.039,10.204,171.979      c-7.448,29.013-28.11,54.783-58.181,72.565C373.473,492.982,290.275,492.982,229.527,492.982z M266.888,21.097      c-34.496,0-67.271,10.145-94.929,29.406c-30.073,20.945-51.982,51.596-63.357,88.639c-4.343,14.143-5.072,29.309-5.776,43.975      c-1.265,26.327-2.573,53.551-24.525,75.917c-4.333,4.415-8.863,8.61-13.244,12.669c-11.293,10.459-21.96,20.339-29.261,33.513      C8.398,354.647,22.863,416.887,68.724,446.907c42.572,27.867,97.689,33.581,135.444,35.454      c8.289,0.412,16.821,0.621,25.359,0.621c59.594,0,141.21,0,202.434-36.202c27.771-16.423,46.801-40.02,53.585-66.444      c12.672-49.368,9.115-108.447-10.014-166.356c-18.344-55.53-49.437-106.464-87.55-143.42      c-32.298-31.316-74.498-48.878-118.827-49.448C268.4,21.102,267.641,21.097,266.888,21.097z" fill="#3F456B"/></g></g><g opacity="0.2"><g><g><g><path d="M342.555,194.475c0.873,3.947-2.559,7.387-6.509,6.521c-1.993-0.437-3.603-2.041-4.048-4.032        c-0.886-3.959,2.565-7.414,6.522-6.532C340.509,190.877,342.114,192.484,342.555,194.475z" fill="#3F456B"/></g></g><g><g><path d="M295.725,194.475c0.873,3.948-2.559,7.387-6.509,6.521c-1.993-0.437-3.603-2.041-4.048-4.032        c-0.886-3.959,2.565-7.414,6.522-6.532C293.68,190.877,295.285,192.484,295.725,194.475z" fill="#3F456B"/></g></g></g><g><g><g><path d="M291.725,88.475c0.873,3.948-2.559,7.387-6.509,6.521c-1.993-0.437-3.603-2.041-4.048-4.032        c-0.886-3.959,2.565-7.414,6.522-6.532C289.68,84.877,291.285,86.484,291.725,88.475z" fill="#3F456B"/></g></g></g><g><g><g><path d="M314.725,115.975c0.873,3.948-2.559,7.387-6.509,6.521c-1.993-0.437-3.603-2.041-4.048-4.032        c-0.886-3.959,2.565-7.414,6.522-6.532C312.68,112.377,314.285,113.984,314.725,115.975z" fill="#3F456B"/></g></g></g><g><g><g><path d="M248.555,194.475c0.873,3.947-2.559,7.387-6.509,6.521c-1.993-0.437-3.603-2.041-4.048-4.032        c-0.886-3.959,2.565-7.414,6.522-6.532C246.509,190.877,248.114,192.484,248.555,194.475z" fill="#3F456B"/></g></g></g><g><g><g><path d="M244.555,88.475c0.873,3.947-2.559,7.387-6.509,6.521c-1.993-0.437-3.603-2.041-4.048-4.032        c-0.886-3.959,2.565-7.414,6.522-6.532C242.509,84.877,244.114,86.484,244.555,88.475z" fill="#3F456B"/></g></g></g><g><g><g><path d="M267.555,115.975c0.873,3.947-2.559,7.387-6.509,6.521c-1.993-0.437-3.603-2.041-4.048-4.032        c-0.886-3.959,2.565-7.414,6.522-6.532C265.509,112.377,267.114,113.984,267.555,115.975z" fill="#3F456B"/></g></g><g><g><path d="M220.725,115.975c0.873,3.948-2.559,7.387-6.51,6.521c-1.993-0.437-3.603-2.041-4.048-4.032        c-0.886-3.959,2.565-7.414,6.522-6.532C218.68,112.377,220.285,113.984,220.725,115.975z" fill="#3F456B"/></g></g></g><g><g><g><path d="M342.692,250.713c0,2.992-2.424,5.418-5.418,5.418c-2.991,0-5.417-2.426-5.417-5.418        c0-2.992,2.426-5.419,5.417-5.419C340.268,245.294,342.692,247.721,342.692,250.713z" fill="#3F456B"/></g></g><g><g><path d="M302.862,250.713c0,2.992-2.424,5.418-5.418,5.418c-2.991,0-5.417-2.426-5.417-5.418        c0-2.992,2.426-5.419,5.417-5.419C300.438,245.294,302.862,247.721,302.862,250.713z" fill="#3F456B"/></g></g></g><g><g><g><path d="M365.692,223.213c0,2.992-2.424,5.418-5.418,5.418c-2.991,0-5.417-2.426-5.417-5.418        c0-2.992,2.426-5.419,5.417-5.419C363.268,217.794,365.692,220.221,365.692,223.213z" fill="#3F456B"/></g></g><g><g><path d="M318.862,223.213c0,2.992-2.424,5.418-5.418,5.418c-2.991,0-5.417-2.426-5.417-5.418        c0-2.992,2.426-5.419,5.417-5.419C316.438,217.794,318.862,220.221,318.862,223.213z" fill="#3F456B"/></g></g></g><g><g><g><path d="M342.692,305.713c0,2.992-2.424,5.418-5.418,5.418c-2.991,0-5.417-2.426-5.417-5.418        c0-2.992,2.426-5.419,5.417-5.419C340.268,300.294,342.692,302.721,342.692,305.713z" fill="#3F456B"/></g></g><g><g><path d="M295.862,305.713c0,2.992-2.424,5.418-5.418,5.418c-2.991,0-5.417-2.426-5.417-5.418        c0-2.992,2.426-5.419,5.417-5.419C293.438,300.294,295.862,302.721,295.862,305.713z" fill="#3F456B"/></g></g></g><g><g><g><path d="M365.692,278.213c0,2.992-2.424,5.418-5.418,5.418c-2.991,0-5.417-2.426-5.417-5.418        c0-2.992,2.426-5.419,5.417-5.419C363.268,272.794,365.692,275.221,365.692,278.213z" fill="#3F456B"/></g></g><g><g><path d="M323.862,278.213c0,2.992-2.424,5.418-5.418,5.418c-2.991,0-5.417-2.426-5.417-5.418        c0-2.992,2.426-5.419,5.417-5.419C321.438,272.794,323.862,275.221,323.862,278.213z" fill="#3F456B"/></g></g></g></g><g><g><path d="M190.213,491.101c-8.786,0.001-18.102-0.717-27.936-2.153c-2.732-0.399-4.624-2.938-4.225-5.67      s2.943-4.624,5.67-4.225c31.163,4.55,56.495,1.524,75.294-8.995c16.224-9.08,26.93-23.737,30.961-42.387      c5.604-25.933-2.276-58.036-21.083-85.878c-20.862-30.884-52.611-53.733-89.399-64.338      c-95.14-26.619-121.762,24.26-122.021,24.776c-1.232,2.47-4.234,3.478-6.706,2.243c-2.471-1.232-3.476-4.234-2.244-6.706      c0.311-0.624,7.856-15.406,28.469-26.375c18.542-9.867,51.849-18.492,105.233-3.559c39.074,11.264,72.783,35.538,94.954,68.36      c20.606,30.505,28.833,64.616,22.57,93.588c-4.654,21.535-17.051,38.479-35.851,49      C229.249,486.983,211.261,491.101,190.213,491.101z" fill="#3F456B"/></g></g><g opacity="0.7"><g><g><ellipse cx="54" cy="318.334" fill="#FFFFFF" rx="10.083" ry="10.083" transform="matrix(0.9199 -0.3921 0.3921 0.9199 -120.4985 46.6674)"/></g></g><g><g><path d="M189.997,336c-2.363,0-4.735-0.832-6.64-2.525c-18.874-16.774-41.389-25.171-66.942-24.861       c-19.515,0.212-33.607,5.635-33.747,5.689c-5.137,2.006-10.937-0.514-12.958-5.641c-2.021-5.128,0.474-10.919,5.595-12.955       c0.686-0.272,17.052-6.678,40.033-7.08c30.581-0.572,58.695,9.804,81.305,29.898c4.128,3.669,4.5,9.989,0.832,14.118       C195.499,334.866,192.753,336,189.997,336z" fill="#FFFFFF"/></g></g></g></g><g><g><path d="M384,351H273c0,0-16-1-16,16.5V384C257,384,371,398,384,351z" fill="#F5F6F7"/></g></g><g opacity="0.15"><g><rect fill="#3F456B" height="121" transform="matrix(-1.836970e-16 1 -1 -1.836970e-16 693.5 60.5)" width="16" x="308.5" y="316.5"/></g></g><g><g><path d="M436.011,462.975H480c0,0,16,0.025,16-15.975v-16c0,0-4-80-112-80c0,0-8,33-64,33s-63,0-63,0v47h-64     l-32-95c0,0-5.747-21.773-32-17c-33,6-110,41-112,129c0,0-2,15,15,15h41.344" fill="#E95A6B"/></g></g><g><g><polygon fill="#767C93" points="490,463 20,463 20,431 497,431    "/></g></g><g opacity="0.25"><g><polygon fill="#3F456B" points="490,463 20,463 20,447 497,447    "/></g></g><g opacity="0.25"><g><polygon fill="#3F456B" points="194.403,431 20,431 20,415 188,415    "/></g></g><g opacity="0.25"><g><polygon fill="#3F456B" points="496.403,431 257,431 257,415 493,415    "/></g></g><g opacity="0.5"><g><path d="M432.538,60.693c-0.084,0-0.168-0.002-0.252-0.006c-2.409-0.122-4.394-1.925-4.71-4.315     c-0.937-7.084-4.632-11.501-11.297-13.504c-5.328-1.603-10.507-0.997-10.556-0.99c-2.75,0.361-5.245-1.58-5.6-4.318     c-0.354-2.739,1.58-5.246,4.318-5.6c0.293-0.038,7.282-0.903,14.715,1.331c6.222,1.87,11.053,5.396,14.235,10.274     c5.182-6.08,14.04-11.371,27.893-10.506c2.756,0.172,4.852,2.545,4.68,5.301s-2.547,4.864-5.301,4.68     c-19.145-1.197-22.893,12.247-23.255,13.784C436.872,59.089,434.844,60.693,432.538,60.693z" fill="#3F456B"/></g></g><g opacity="0.5"><g><path d="M48.64,232.648c-2.275,0-4.285-1.546-4.847-3.782c-4.03-16.056-21.412-12.373-23.382-11.9     c-2.676,0.648-5.381-0.998-6.034-3.675c-0.653-2.676,0.973-5.373,3.646-6.036c0.287-0.07,7.129-1.728,14.771-0.357     c6.393,1.147,11.596,4.1,15.315,8.582c4.453-6.633,12.646-12.896,26.511-13.622c2.751-0.153,5.11,1.975,5.254,4.732     c0.144,2.757-1.974,5.109-4.732,5.254c-19.759,1.033-21.462,15.684-21.525,16.307c-0.244,2.416-2.189,4.309-4.611,4.484     C48.884,232.645,48.761,232.648,48.64,232.648z" fill="#3F456B"/></g></g><g opacity="0.25"><g><path d="M185.774,463.968c1.843-6.151,2.846-12.664,2.846-19.415c0-37.309-30.245-67.553-67.554-67.553     c-37.309,0-67.553,30.245-67.553,67.553c0,6.385,0.905,12.555,2.561,18.41C99.006,462.13,142.745,463.728,185.774,463.968z" fill="#3F456B"/></g></g><g opacity="0.25"><g><path d="M452.774,463.968c1.843-6.151,2.846-12.664,2.846-19.415c0-37.309-30.245-67.553-67.554-67.553     c-37.309,0-67.553,30.245-67.553,67.553c0,6.385,0.905,12.555,2.561,18.41C366.006,462.13,409.745,463.728,452.774,463.968z" fill="#3F456B"/></g></g><g><g><circle cx="121.066" cy="444.553" fill="#767C93" r="51.151"/></g></g><g><g><circle cx="388.28" cy="444.553" fill="#767C93" r="51.151"/></g></g><g><g><circle cx="388.28" cy="444.553" fill="#DAE1EA" r="15.554"/></g></g><g opacity="0.25"><g><path d="M341,445c0,0,4,36,47,36s48-35,48-35s2,50-48,50S341,445,341,445z" fill="#3F456B"/></g></g><g opacity="0.25"><g><path d="M374.521,436c0,0,1.176,14.118,13.824,14.118s14.118-13.725,14.118-13.725S403.051,456,388.345,456     C373.639,456,374.521,436,374.521,436z" fill="#3F456B"/></g></g><g opacity="0.2"><g><path d="M435.977,444c0,0-4-36-47-36s-48,35-48,35s-2-50,48-50S435.977,444,435.977,444z" fill="#FFFFFF"/></g></g><g opacity="0.25"><g><path d="M74,445c0,0,4,36,47,36s48-35,48-35s2,50-48,50S74,445,74,445z" fill="#3F456B"/></g></g><g opacity="0.2"><g><path d="M168.977,444c0,0-4-36-47-36s-48,35-48,35s-2-50,48-50S168.977,444,168.977,444z" fill="#FFFFFF"/></g></g><g><g><circle cx="121.28" cy="444.553" fill="#DAE1EA" r="15.554"/></g></g><g opacity="0.25"><g><path d="M107.521,436c0,0,1.176,14.118,13.824,14.118s14.118-13.725,14.118-13.725S136.051,456,121.345,456     S107.521,436,107.521,436z" fill="#3F456B"/></g></g><g><g><path d="M103,135c-25,0-23,33-23,33h399c0,0,4-33-23-33S103,135,103,135z" fill="#E95A6B"/></g></g><g opacity="0.2"><g><path d="M20,431c0,0,27-73,108-94c0,0,27-5,35,8c0,0-3.386-35.865-43.693-23.933S28,363,20,431" fill="#FFFFFF"/></g></g><g><g><path d="M113.005,326.001c-0.339,0-0.683-0.034-1.028-0.106c-2.703-0.565-4.436-3.215-3.871-5.918l32-153     c0.565-2.702,3.211-4.437,5.917-3.871c2.703,0.565,4.436,3.215,3.871,5.918l-32,153     C117.401,324.381,115.322,326.001,113.005,326.001z" fill="#3F456B"/></g></g><g><g><path d="M400,335h-22c-5.5,0-10-4.5-10-10v-75c0-5.5,4.5-10,10-10h22V335z" fill="#F5F6F7"/></g></g><g opacity="0.15"><g><rect fill="#3F456B" height="95" width="16" x="384" y="240"/></g></g><g opacity="0.25"><g><polygon fill="#3F456B" points="479,168 80,168 80,152 478,152    "/></g></g><g opacity="0.2"><g><path d="M382.1,355.718c0,0,92.567,6.282,97.233,76.282H496C496,432,491.2,344.436,382.1,355.718z" fill="#FFFFFF"/></g></g><g opacity="0.2"><g><path d="M258.5,399.5H314c0,0,64,2.5,68-44.5c0,0-12,30.054-65.5,30.054s-59.5,0-59.5,0L258.5,399.5z" fill="#FFFFFF"/></g></g><g><g><path d="M438,196H122c-8.271,0-15-6.729-15-15v-13c0-2.762,2.239-5,5-5s5,2.238,5,5v13c0,2.757,2.243,5,5,5h316     c2.757,0,5-2.243,5-5v-13c0-2.762,2.238-5,5-5s5,2.238,5,5v13C453,189.271,446.271,196,438,196z" fill="#3F456B"/></g></g><g><g><path d="M160.9,299.722l-11.74-2.485c-5.381-1.139-8.851-6.473-7.712-11.854l5.799-27.393     c1.139-5.381,6.473-8.851,11.854-7.712l11.74,2.485c5.381,1.139,8.851,6.473,7.712,11.854l-5.799,27.393     C171.615,297.391,166.281,300.861,160.9,299.722z" fill="#767C93"/></g></g></g><g id="Lines"><g><g><path d="M340,468.137H169.347c-2.761,0-5-2.238-5-5s2.239-5,5-5H340c2.762,0,5,2.238,5,5     S342.762,468.137,340,468.137z" fill="#3F456B"/></g></g><g><g><path d="M121.066,500.705c-30.962,0-56.151-25.189-56.151-56.151s25.189-56.151,56.151-56.151     s56.151,25.189,56.151,56.151S152.028,500.705,121.066,500.705z M121.066,398.402c-25.448,0-46.151,20.703-46.151,46.151     s20.704,46.151,46.151,46.151s46.151-20.703,46.151-46.151S146.514,398.402,121.066,398.402z" fill="#3F456B"/></g></g><g><g><path d="M388.28,500.705c-30.962,0-56.151-25.189-56.151-56.151s25.189-56.151,56.151-56.151     s56.151,25.189,56.151,56.151S419.242,500.705,388.28,500.705z M388.28,398.402c-25.448,0-46.151,20.703-46.151,46.151     s20.703,46.151,46.151,46.151s46.151-20.703,46.151-46.151S413.729,398.402,388.28,398.402z" fill="#3F456B"/></g></g><g><g><path d="M388.28,465.107c-11.333,0-20.554-9.221-20.554-20.554S376.947,424,388.28,424     s20.554,9.221,20.554,20.554S399.613,465.107,388.28,465.107z M388.28,434c-5.819,0-10.554,4.734-10.554,10.554     s4.734,10.554,10.554,10.554s10.554-4.734,10.554-10.554S394.1,434,388.28,434z" fill="#3F456B"/></g></g><g><g><path d="M121.28,465.107c-11.333,0-20.553-9.221-20.553-20.554S109.947,424,121.28,424     c11.333,0,20.554,9.221,20.554,20.554S132.614,465.107,121.28,465.107z M121.28,434c-5.819,0-10.553,4.734-10.553,10.554     s4.734,10.554,10.553,10.554c5.819,0,10.554-4.734,10.554-10.554S127.1,434,121.28,434z" fill="#3F456B"/></g></g><g><g><path d="M289,388c-2.762,0-5-2.238-5-5v-47.877c-0.083-1.878-0.354-16.01,9.403-26.396     C300.091,301.609,309.712,298,322,298h45.875c1.545-0.065,9.284-0.102,15.117,5.377C386.979,307.123,389,312.379,389,319v32     c0,2.762-2.238,5-5,5s-5-2.238-5-5v-32c0-3.75-0.961-6.555-2.855-8.334c-3.021-2.84-7.782-2.682-7.833-2.676     c-0.104,0.007-0.207,0.01-0.312,0.01h-46c-9.379,0-16.528,2.527-21.25,7.513c-7.293,7.7-6.765,19.081-6.759,19.195     c0.005,0.091,0.009,0.201,0.009,0.292v48C294,385.762,291.762,388,289,388z" fill="#3F456B"/></g></g><g><g><path d="M479,173H80c-2.586,0-4.745-1.972-4.979-4.547c-0.062-0.679-1.392-16.741,8.904-28.016     C90.25,133.512,99.359,130,111,130h337c11.641,0,20.751,3.512,27.075,10.438c10.296,11.274,8.966,27.337,8.904,28.016     C483.745,171.028,481.586,173,479,173z M85.074,163h388.853c-0.383-4.345-1.752-10.943-6.281-15.869     C463.294,142.399,456.685,140,448,140H111c-8.684,0-15.294,2.399-19.645,7.131C86.826,152.056,85.457,158.651,85.074,163z" fill="#3F456B"/></g></g><g><g><path d="M70,436.5H18.292c-2.761,0-5-2.238-5-5s2.239-5,5-5H70c2.761,0,5,2.238,5,5S72.761,436.5,70,436.5z" fill="#3F456B"/></g></g><g><g><path d="M338,436.5H172.292c-2.761,0-5-2.238-5-5s2.239-5,5-5H338c2.762,0,5,2.238,5,5S340.762,436.5,338,436.5z" fill="#3F456B"/></g></g><g><g><path d="M73.344,468H32c-6.861,0-12.146-2.063-15.708-6.132c-4.807-5.491-4.459-12.47-4.285-14.204     c1.199-49.663,25.711-81.272,46.081-99.056c24.471-21.364,53.091-31.965,70.164-34.552c24.214-3.669,35.1,11.701,37.534,20.486     l31.953,94.861c0.882,2.616-0.525,5.452-3.142,6.334c-2.617,0.886-5.453-0.525-6.334-3.143l-32-95     c-0.034-0.1-0.064-0.201-0.092-0.304c-0.476-1.671-5.347-16.539-26.421-13.349c-15.743,2.386-42.235,12.249-65.086,32.198     c-18.884,16.486-41.616,45.825-42.665,91.972c-0.004,0.184-0.018,0.366-0.042,0.548l0,0c0.001,0-0.427,4.061,1.899,6.665     C25.44,457.101,28.18,458,32,458h41.344c2.761,0,5,2.238,5,5S76.105,468,73.344,468z" fill="#3F456B"/></g></g><g><g><path d="M436.011,467.975c-2.762,0-5-2.238-5-5s2.238-5,5-5H480c1.814-0.023,11-0.666,11-10.975v-15.843     c-0.105-1.459-1.685-19.718-14.843-37.626c-17.796-24.222-47.617-36.83-88.664-37.503C383.383,365.51,368.322,389,320,389h-58v42     c0,2.762-2.238,5-5,5s-5-2.238-5-5v-47c0-2.762,2.238-5,5-5h63c51.472,0,59.07-28.886,59.141-29.178     c0.544-2.243,2.552-3.822,4.859-3.822c31.957,0,75.342,7.298,100.548,42.065c15.197,20.961,16.402,41.808,16.446,42.685     c0.004,0.083,0.006,0.167,0.006,0.25v16c0,6.095-1.89,11.07-5.615,14.791c-6.008,5.998-14.38,6.184-15.38,6.184     c-0.005,0-0.009,0-0.013,0H436.011z" fill="#3F456B"/></g></g><g><g><path d="M496,436.5h-58c-2.762,0-5-2.238-5-5s2.238-5,5-5h58c2.762,0,5,2.238,5,5S498.762,436.5,496,436.5z" fill="#3F456B"/></g></g><g><g><path d="M257,389c-2.762,0-5-2.238-5-5v-16.5c0-6.861,2.07-12.285,6.152-16.12     c5.819-5.469,13.441-5.453,14.971-5.38H384c2.762,0,5,2.238,5,5s-2.238,5-5,5H273c-0.104,0-0.208-0.003-0.312-0.01l0,0     c-0.021,0.003-4.707-0.174-7.74,2.726c-1.956,1.87-2.948,4.826-2.948,8.784V384C262,386.762,259.762,389,257,389z" fill="#3F456B"/></g></g><g><g><path d="M416.5,358c-0.005,0-0.009,0-0.014,0c-2.762-0.008-4.994-2.252-4.986-5.014l0.5-185     c0.008-2.757,2.245-4.986,5-4.986c0.005,0,0.009,0,0.014,0c2.762,0.008,4.994,2.252,4.986,5.014l-0.5,185     C421.492,355.771,419.255,358,416.5,358z" fill="#3F456B"/></g></g><g><g><path d="M400,340h-22c-8.271,0-15-6.729-15-15v-75c0-8.271,6.729-15,15-15h22c2.762,0,5,2.238,5,5v95     C405,337.762,402.762,340,400,340z M378,245c-2.757,0-5,2.243-5,5v75c0,2.757,2.243,5,5,5h17v-85H378z" fill="#3F456B"/></g></g><g><g><path d="M416,260h-16c-2.762,0-5-2.238-5-5s2.238-5,5-5h16c2.762,0,5,2.238,5,5S418.762,260,416,260z" fill="#3F456B"/></g></g><g><g><path d="M481,324h-81c-2.762,0-5-2.238-5-5s2.238-5,5-5h81c2.762,0,5,2.238,5,5S483.762,324,481,324z" fill="#3F456B"/></g></g><g><g><path d="M219.999,363.001c-2.094,0-4.044-1.324-4.742-3.42l-16-48c-0.873-2.62,0.543-5.451,3.163-6.324     c2.619-0.872,5.451,0.542,6.325,3.162l16,48c0.873,2.62-0.542,5.451-3.162,6.324     C221.057,362.918,220.523,363.001,219.999,363.001z" fill="#3F456B"/></g></g><g><g><path d="M166,356.001c-2.033,0-3.944-1.249-4.69-3.268c-0.958-2.591,0.367-5.466,2.957-6.424l46-17     c2.592-0.958,5.467,0.368,6.424,2.957c0.957,2.591-0.367,5.466-2.957,6.424l-46,17C167.162,355.901,166.576,356.001,166,356.001z     " fill="#3F456B"/></g></g><g><g><path d="M448,356h-59.934c-2.762,0-5-2.238-5-5s2.238-5,5-5H448c9.121,0,16.15-2.462,20.894-7.318     c7.284-7.46,7.111-18.432,7.108-18.541c-0.001-0.04-0.002-0.102-0.002-0.141v-17c0-3.592-0.904-6.165-2.765-7.868     c-3.265-2.99-8.742-2.656-8.796-2.651c-0.146,0.013-0.293,0.02-0.439,0.02h-64c-2.762,0-5-2.238-5-5s2.238-5,5-5h63.815     c1.787-0.118,10.078-0.325,16.173,5.256C483.978,291.408,486,296.537,486,303v16.942c0.028,1.452,0.033,15.413-9.859,25.63     C469.441,352.491,459.973,356,448,356z" fill="#3F456B"/></g></g><g><g><path d="M448.5,356c-2.762,0-5-2.238-5-5v-63.5c0-2.762,2.238-5,5-5s5,2.238,5,5V351     C453.5,353.762,451.262,356,448.5,356z" fill="#3F456B"/></g></g><g><g><path d="M162.974,304.941c-1.026,0-2.066-0.106-3.109-0.327h0l-11.74-2.485c-3.909-0.827-7.267-3.136-9.457-6.502     c-2.189-3.364-2.939-7.371-2.111-11.279l5.798-27.393c1.713-8.091,9.692-13.28,17.781-11.569l11.741,2.485     c3.909,0.827,7.267,3.136,9.457,6.502c2.189,3.364,2.939,7.371,2.111,11.279l-5.798,27.393     C176.153,300.094,169.907,304.941,162.974,304.941z M161.935,294.831c2.697,0.57,5.356-1.159,5.927-3.856l5.798-27.393     c0.274-1.296,0.022-2.63-0.71-3.757c-0.733-1.126-1.85-1.896-3.145-2.171l-11.741-2.485c-2.691-0.566-5.355,1.159-5.927,3.856     l-5.798,27.393c-0.274,1.296-0.022,2.63,0.71,3.757c0.733,1.126,1.85,1.896,3.145,2.171L161.935,294.831z" fill="#3F456B"/></g></g><g><g><path d="M143.004,276.001c-0.402,0-0.81-0.049-1.217-0.15l-16-4c-2.679-0.67-4.308-3.385-3.638-6.063     s3.386-4.306,6.063-3.638l16,4c2.679,0.67,4.308,3.385,3.638,6.063C147.283,274.484,145.244,276.001,143.004,276.001z" fill="#3F456B"/></g></g></g></svg>