<?xml version="1.0" ?><svg enable-background="new 0 0 512 512" version="1.1" viewBox="0 0 512 512" xml:space="preserve" xmlns="http://www.w3.org/2000/svg" xmlns:xlink="http://www.w3.org/1999/xlink"><g id="Colors"><g opacity="0.5"><g id="XMLID_33_"><g><g><path d="M481,255.5C481,379.49,380.49,480,256.5,480c-61.878,0-117.909-25.032-158.516-65.517       C57.219,373.83,32,317.612,32,255.5C32,131.51,132.51,31,256.5,31c62.112,0,118.33,25.219,158.983,65.984       C455.968,137.591,481,193.622,481,255.5z" fill="#CDE7F9"/></g></g></g><g><g><g><path d="M383.23,353.68c1.63-4.08,2.53-8.52,2.53-13.18c0-18.7-14.45-34.02-32.8-35.4       c0.03-0.53,0.04-1.06,0.04-1.6c0-17.4-14.1-31.5-31.5-31.5S290,286.1,290,303.5c0,0.54,0.01,1.07,0.04,1.6       c-18.35,1.38-32.8,16.7-32.8,35.4c0,4.88,0.98,9.53,2.76,13.76c-10.35,8.05-17,20.62-17,34.74c0,24.3,19.7,44,44,44       c14.28,0,26.97-6.8,35-17.34c8.03,10.54,20.72,17.34,35,17.34c24.3,0,44-19.7,44-44C401,374.53,394.02,361.69,383.23,353.68z" fill="#8DD3B7"/></g></g><g opacity="0.2"><g><path d="M329,370.58c0,15.7-13.43,28.42-30,28.42s-30-12.72-30-28.42c0-7.13,2.77-13.65,7.37-18.64       C267.89,348.32,262,340.31,262,331c0-12.7,10.97-23,24.5-23s24.5,10.3,24.5,23c0,4.5-1.38,8.7-3.77,12.25       C319.8,346.63,329,357.59,329,370.58z" fill="#FFFFFF"/></g></g><g opacity="0.2"><g><ellipse cx="311.5" cy="293.429" fill="#FFFFFF" rx="17.5" ry="16.429"/></g></g><g><g><path d="M357,438c-13.371,0-25.829-5.292-35-14.698C312.829,432.708,300.371,438,287,438       c-27.019,0-49-21.981-49-49c0-13.992,5.824-27.031,16.101-36.314c-1.235-3.919-1.86-8.003-1.86-12.186       c0-19.516,14.105-36.175,32.864-39.779C286.529,281.888,302.309,267,321.5,267s34.971,14.888,36.396,33.721       c18.759,3.604,32.864,20.264,32.864,39.779c0,3.921-0.556,7.771-1.656,11.49C399.745,361.236,406,374.812,406,389       C406,416.019,384.019,438,357,438z M322,410.66c1.561,0,3.031,0.729,3.978,1.97C333.419,422.397,344.727,428,357,428       c21.505,0,39-17.495,39-39c0-12.464-5.741-23.874-15.75-31.306c-1.822-1.353-2.505-3.763-1.663-5.869       c1.442-3.609,2.173-7.419,2.173-11.325c0-15.866-12.376-29.226-28.175-30.414c-2.719-0.205-4.772-2.55-4.617-5.271       c0.025-0.436,0.032-0.871,0.032-1.314c0-14.612-11.888-26.5-26.5-26.5S295,288.888,295,303.5c0,0.443,0.007,0.879,0.032,1.314       c0.155,2.722-1.898,5.066-4.617,5.271c-15.799,1.188-28.175,14.548-28.175,30.414c0,4.11,0.797,8.087,2.368,11.82       c0.877,2.084,0.246,4.498-1.539,5.886C253.493,365.655,248,376.879,248,389c0,21.505,17.495,39,39,39       c12.273,0,23.581-5.603,31.022-15.37C318.969,411.389,320.439,410.66,322,410.66z" fill="#3F456B"/></g></g><g opacity="0.2"><g><path d="M324.25,273.25c0,0,26.75,16.75,12.75,43.75c0,0,46,4,27,40c0,0,30,18,12,45c-17.541,26.312-55-2-55-2       s-14.975,16.822-43,13c-22-3-31-21-33-32c0,0-11.497,36.938,28.752,49.969S322,416,322,416s11.576,21.957,41.788,16.479       C394,427,402.734,406.1,399.867,379.05c0,0-4.867-17.05-16.867-25.05c0,0,13.031-42.209-27.484-48.605       C355.516,305.395,351.5,276.5,324.25,273.25z" fill="#3F456B"/></g></g></g><g><g><g><path d="M495.729,209.687c0,21.885-17.61,39.363-39.433,39.617c-0.158,0.004-0.322-0.287-0.481-0.287H294.241       c-0.482,0-0.962,0.283-1.443,0.269C269.033,248.525,250,229.166,250,205.213c0-21.966,16.008-40.118,36.994-43.571       c-0.606-2.5-0.928-5.08-0.928-7.773c0-18.326,14.855-33.163,33.181-33.163c10.339,0,19.572,4.737,25.655,12.152       c8.878-23.404,31.502-40.028,58.018-40.028c34.263,0,62.034,27.773,62.034,62.035c0,5.372-0.683,10.581-1.967,15.554       C481.611,173.793,495.729,190.092,495.729,209.687z" fill="#F0F3F7"/></g></g><g opacity="0.7"><g><path d="M330.476,134.092c0,7.375-5.977,13.352-13.352,13.352c-7.374,0-13.352-5.977-13.352-13.352       c0-7.374,5.979-13.352,13.352-13.352C324.499,120.74,330.476,126.718,330.476,134.092z" fill="#FFFFFF"/></g></g><g opacity="0.7"><g><path d="M307.802,185.189c0,12.186-9.877,22.062-22.063,22.062c-12.184,0-22.063-9.876-22.063-22.062       c0-12.184,9.879-22.063,22.063-22.063C297.925,163.126,307.802,173.005,307.802,185.189z" fill="#FFFFFF"/></g></g><g opacity="0.7"><g><path d="M424.651,131.538c0,19.67-15.946,35.617-35.619,35.617c-19.671,0-35.618-15.946-35.618-35.617       c0-19.672,15.947-35.618,35.618-35.618C408.706,95.919,424.651,111.866,424.651,131.538z" fill="#FFFFFF"/></g></g><g opacity="0.1"><g><path d="M301.03,228.579c-53.944,0-47.644-45.147-47.644-45.147c-12.888,68.735,43.15,65.585,43.15,65.585       s142.219,0,159.76,0c17.542,0,35.084-10.508,39.215-33.124c4.132-22.616-19.309-41.948-19.309-41.948       c2.609,3.769,25.616,54.451-27.155,54.451h-132.07L301.03,228.579z" fill="#3F456B"/></g></g><g><g><path d="M436.58,245.922v0.004h-0.435C436.288,245.926,436.437,245.926,436.58,245.922z" fill="#4D4D4D"/></g></g><g><g><path d="M422.948,254.422c-47.743,0-129.84-0.015-130.312-0.03C265.926,253.538,245,231.96,245,205.268       c0-22.5,14.979-41.728,36.267-47.468c-0.134-1.3-0.201-2.607-0.201-3.916c0-21.047,17.128-38.17,38.181-38.17       c8.863,0,17.3,3.039,24.038,8.516c11.372-22.04,34.476-36.398,59.635-36.398c36.963,0,67.034,30.071,67.034,67.034       c0,3.981-0.351,7.948-1.046,11.845c18.714,5.666,31.822,22.99,31.822,42.977c0,24.377-19.906,44.441-44.374,44.728       C456.123,254.42,442.378,254.422,422.948,254.422z M456.289,249.414h0.011H456.289z M292.899,244.396       c3.608,0.016,162.22,0.022,163.375,0.019c19.037-0.277,34.455-15.834,34.455-34.728c0-16.896-12.043-31.341-28.635-34.349       c-1.367-0.248-2.57-1.054-3.319-2.224c-0.749-1.171-0.978-2.601-0.631-3.946c1.2-4.648,1.809-9.46,1.809-14.303       c0-31.449-25.585-57.034-57.034-57.034c-23.556,0-44.992,14.79-53.343,36.804c-0.633,1.668-2.106,2.873-3.867,3.161       c-1.761,0.289-3.541-0.383-4.673-1.764c-5.38-6.558-13.322-10.318-21.79-10.318c-15.539,0-28.181,12.637-28.181,28.17       c0,2.229,0.265,4.452,0.788,6.607c0.327,1.353,0.077,2.779-0.69,3.939c-0.769,1.16-1.984,1.947-3.357,2.173       C268.797,169.73,255,185.991,255,205.268C255,226.51,271.642,243.686,292.899,244.396z" fill="#3F456B"/></g></g><g><g><path d="M319.806,168.073c-0.518,0-1.044-0.08-1.562-0.251c-14.417-4.739-33.506-0.701-33.696-0.659       c-2.698,0.584-5.36-1.13-5.944-3.829s1.13-5.36,3.829-5.944c0.889-0.193,21.963-4.646,38.935,0.933       c2.623,0.862,4.051,3.688,3.188,6.312C323.862,166.738,321.906,168.073,319.806,168.073z" fill="#3F456B"/></g></g></g><g><g><g><path d="M166.957,125.317c-7.856,31.015-39.366,49.79-70.379,41.934c-31.017-7.855-49.791-39.364-41.935-70.38       c7.855-31.014,39.366-49.788,70.381-41.934C156.037,62.792,174.812,94.303,166.957,125.317z" fill="#FFBC5A"/></g></g><g opacity="0.1"><g><path d="M161.724,81.687c16.582,27.829,7.463,63.831-20.366,80.412c-27.829,16.582-63.831,7.464-80.413-20.366       c0,0,31.591,27.971,73.054,3.267C172.938,121.799,161.724,81.687,161.724,81.687z" fill="#3F456B"/></g></g><g opacity="0.5"><g><path d="M116.22,96.379c-3.741,14.773-18.749,23.715-33.522,19.974c-14.772-3.741-23.716-18.75-19.973-33.523       c3.74-14.772,18.75-23.714,33.524-19.972C111.019,66.598,119.962,81.606,116.22,96.379z" fill="#FFFFFF"/></g></g><g><g><path d="M110.911,174.05c-5.185,0-10.404-0.646-15.561-1.952c-16.296-4.127-30.009-14.353-38.613-28.792       c-8.604-14.44-11.069-31.367-6.942-47.663c8.52-33.637,42.82-54.074,76.456-45.553c16.294,4.127,30.007,14.353,38.611,28.793       s11.069,31.367,6.942,47.661l0,0c-4.127,16.295-14.353,30.008-28.793,38.611C133.14,171.037,122.108,174.05,110.911,174.05z        M110.806,58.157c-23.651,0-45.251,15.991-51.316,39.94c-3.472,13.706-1.398,27.943,5.839,40.089s18.771,20.746,32.477,24.218       c13.706,3.469,27.942,1.397,40.086-5.839c12.146-7.237,20.747-18.771,24.218-32.477l0,0       c3.472-13.705,1.398-27.941-5.839-40.088c-7.237-12.146-18.77-20.746-32.475-24.218       C119.452,58.684,115.094,58.157,110.806,58.157z" fill="#3F456B"/></g></g><g><g><g><g><g><g opacity="0.3"><g><g><path d="M57.151,60.919c-1.273,0-2.547-0.483-3.522-1.451l-13.98-13.877             c-1.96-1.945-1.972-5.111-0.026-7.071c1.944-1.96,5.111-1.972,7.071-0.026l13.98,13.877             c1.96,1.945,1.972,5.111,0.026,7.071C59.722,60.426,58.437,60.919,57.151,60.919z" fill="#3F456B"/></g></g></g><g opacity="0.3"><g><g><path d="M181.407,185.176c-1.273,0-2.547-0.483-3.522-1.451l-13.98-13.878             c-1.96-1.946-1.972-5.111-0.026-7.071c1.944-1.96,5.111-1.972,7.071-0.026l13.98,13.878             c1.96,1.946,1.972,5.111,0.026,7.071C183.978,184.683,182.692,185.176,181.407,185.176z" fill="#3F456B"/></g></g></g></g><g><g opacity="0.3"><g><g><path d="M167.478,60.971c-1.273,0-2.547-0.483-3.522-1.451c-1.96-1.945-1.972-5.111-0.026-7.071             l13.877-13.98c1.946-1.959,5.11-1.972,7.071-0.026c1.96,1.945,1.972,5.111,0.026,7.071l-13.877,13.98             C170.049,60.478,168.764,60.971,167.478,60.971z" fill="#3F456B"/></g></g></g><g opacity="0.3"><g><g><path d="M43.222,185.227c-1.273,0-2.547-0.483-3.522-1.451c-1.96-1.945-1.972-5.111-0.026-7.071             l13.877-13.979c1.944-1.96,5.111-1.972,7.071-0.026s1.972,5.111,0.026,7.071l-13.877,13.979             C45.793,184.733,44.508,185.227,43.222,185.227z" fill="#3F456B"/></g></g></g></g></g></g><g><g><g><g opacity="0.3"><g><g><path d="M14.577,116.146c-2.753,0-4.989-2.227-5-4.981c-0.01-2.762,2.22-5.008,4.981-5.019l19.698-0.073             c0.006,0,0.013,0,0.019,0c2.753,0,4.989,2.227,5,4.981c0.01,2.762-2.22,5.008-4.981,5.019l-19.698,0.073             C14.59,116.146,14.583,116.146,14.577,116.146z" fill="#3F456B"/></g></g></g><g opacity="0.3"><g><g><path d="M190.302,116.146c-2.753,0-4.989-2.227-5-4.981c-0.01-2.762,2.22-5.008,4.981-5.019l19.698-0.073             c0.006,0,0.013,0,0.019,0c2.753,0,4.989,2.227,5,4.981c0.01,2.762-2.22,5.008-4.981,5.019l-19.698,0.073             C190.314,116.146,190.308,116.146,190.302,116.146z" fill="#3F456B"/></g></g></g></g><g><g opacity="0.3"><g><g><path d="M112.324,38.096c-2.753,0-4.989-2.227-5-4.981l-0.073-19.698c-0.01-2.762,2.22-5.009,4.981-5.019             c0.006,0,0.013,0,0.019,0c2.753,0,4.989,2.227,5,4.981l0.073,19.698c0.01,2.762-2.22,5.009-4.981,5.019             C112.337,38.096,112.331,38.096,112.324,38.096z" fill="#3F456B"/></g></g></g><g opacity="0.3"><g><g><path d="M112.325,213.82c-2.753,0-4.989-2.227-5-4.981l-0.073-19.698c-0.01-2.762,2.22-5.009,4.981-5.019             c0.006,0,0.013,0,0.019,0c2.753,0,4.989,2.227,5,4.981l0.073,19.698c0.01,2.762-2.22,5.009-4.981,5.019             C112.337,213.82,112.331,213.82,112.325,213.82z" fill="#3F456B"/></g></g></g></g></g></g></g><g><g><g><g><g opacity="0.3"><g><g><path d="M40.226,86.222c-0.632,0-1.273-0.12-1.895-0.375l-18.227-7.471             c-2.555-1.047-3.777-3.967-2.73-6.522c1.047-2.556,3.966-3.78,6.523-2.729l18.227,7.471             c2.555,1.047,3.777,3.967,2.73,6.522C44.062,85.052,42.195,86.222,40.226,86.222z" fill="#3F456B"/></g></g></g><g opacity="0.3"><g><g><path d="M202.574,153.469c-0.632,0-1.273-0.12-1.895-0.375l-18.227-7.471             c-2.555-1.047-3.777-3.967-2.73-6.522c1.047-2.556,3.965-3.78,6.523-2.729l18.227,7.471             c2.555,1.047,3.777,3.967,2.73,6.522C206.41,152.299,204.543,153.469,202.574,153.469z" fill="#3F456B"/></g></g></g></g><g><g opacity="0.3"><g><g><path d="M142.174,44.049c-0.632,0-1.274-0.12-1.895-0.375c-2.555-1.047-3.777-3.967-2.73-6.522             l7.471-18.227c1.047-2.556,3.968-3.78,6.523-2.729c2.555,1.047,3.777,3.967,2.73,6.522l-7.471,18.227             C146.01,42.879,144.143,44.049,142.174,44.049z" fill="#3F456B"/></g></g></g><g opacity="0.3"><g><g><path d="M74.928,206.397c-0.632,0-1.274-0.12-1.895-0.375c-2.555-1.047-3.777-3.967-2.73-6.522             l7.471-18.227c1.047-2.557,3.967-3.779,6.523-2.729c2.555,1.047,3.777,3.967,2.73,6.522l-7.471,18.227             C78.763,205.228,76.896,206.397,74.928,206.397z" fill="#3F456B"/></g></g></g></g></g></g><g><g><g><g opacity="0.3"><g><g><path d="M22.031,153.536c-1.956,0-3.812-1.153-4.614-3.07c-1.066-2.548,0.135-5.477,2.682-6.543             l18.171-7.605c2.548-1.064,5.477,0.134,6.543,2.682c1.066,2.548-0.135,5.477-2.682,6.543l-18.171,7.605             C23.329,153.411,22.675,153.536,22.031,153.536z" fill="#3F456B"/></g></g></g><g opacity="0.3"><g><g><path d="M184.379,86.289c-1.956,0-3.812-1.153-4.614-3.07c-1.066-2.548,0.135-5.477,2.682-6.543             l18.171-7.605c2.546-1.065,5.476,0.134,6.543,2.682c1.066,2.548-0.135,5.477-2.682,6.543L186.308,85.9             C185.677,86.164,185.023,86.289,184.379,86.289z" fill="#3F456B"/></g></g></g></g><g><g opacity="0.3"><g><g><path d="M82.47,44.021c-1.956,0-3.812-1.153-4.614-3.07L70.25,22.78             c-1.066-2.548,0.135-5.477,2.682-6.543c2.546-1.064,5.476,0.134,6.543,2.682L87.08,37.09             c1.066,2.548-0.135,5.477-2.682,6.543C83.768,43.896,83.113,44.021,82.47,44.021z" fill="#3F456B"/></g></g></g><g opacity="0.3"><g><g><path d="M149.717,206.369c-1.956,0-3.812-1.154-4.614-3.07l-7.605-18.17             c-1.066-2.548,0.135-5.477,2.682-6.543c2.547-1.064,5.476,0.135,6.543,2.682l7.605,18.17             c1.066,2.548-0.135,5.477-2.682,6.543C151.015,206.244,150.36,206.369,149.717,206.369z" fill="#3F456B"/></g></g></g></g></g></g></g></g></g><g><g><g><path d="M462.23,390.68c1.63-4.08,2.53-8.52,2.53-13.18c0-18.7-14.45-34.02-32.8-35.4       c0.03-0.53,0.04-1.06,0.04-1.6c0-17.4-14.1-31.5-31.5-31.5S369,323.1,369,340.5c0,0.54,0.01,1.07,0.04,1.6       c-18.35,1.38-32.8,16.7-32.8,35.4c0,4.88,0.98,9.53,2.76,13.76c-10.35,8.05-17,20.62-17,34.74c0,24.3,19.7,44,44,44       c14.28,0,26.97-6.8,35-17.34c8.03,10.54,20.72,17.34,35,17.34c24.3,0,44-19.7,44-44C480,411.53,473.02,398.69,462.23,390.68z" fill="#8DD3B7"/></g></g><g opacity="0.2"><g><path d="M408,407.58c0,15.7-13.43,28.42-30,28.42s-30-12.72-30-28.42c0-7.13,2.77-13.65,7.37-18.64       C346.89,385.32,341,377.31,341,368c0-12.7,10.97-23,24.5-23s24.5,10.3,24.5,23c0,4.5-1.38,8.7-3.77,12.25       C398.8,383.63,408,394.59,408,407.58z" fill="#FFFFFF"/></g></g><g opacity="0.2"><g><ellipse cx="390.5" cy="330.429" fill="#FFFFFF" rx="17.5" ry="16.429"/></g></g><g><g><path d="M436,475c-13.371,0-25.829-5.292-35-14.698C391.829,469.708,379.371,475,366,475       c-27.019,0-49-21.981-49-49c0-13.992,5.824-27.031,16.101-36.314c-1.235-3.919-1.86-8.003-1.86-12.186       c0-19.516,14.105-36.175,32.864-39.779C365.529,318.888,381.309,304,400.5,304s34.971,14.888,36.396,33.721       c18.759,3.604,32.864,20.264,32.864,39.779c0,3.921-0.556,7.771-1.656,11.49C478.745,398.236,485,411.812,485,426       C485,453.019,463.019,475,436,475z M401,447.66c1.561,0,3.031,0.729,3.978,1.97C412.419,459.397,423.727,465,436,465       c21.505,0,39-17.495,39-39c0-12.464-5.741-23.874-15.75-31.306c-1.822-1.353-2.505-3.763-1.663-5.869       c1.442-3.609,2.173-7.419,2.173-11.325c0-15.866-12.376-29.226-28.175-30.414c-2.719-0.205-4.772-2.55-4.617-5.271       c0.025-0.436,0.032-0.871,0.032-1.314c0-14.612-11.888-26.5-26.5-26.5S374,325.888,374,340.5c0,0.443,0.007,0.879,0.032,1.314       c0.155,2.722-1.898,5.066-4.617,5.271c-15.799,1.188-28.175,14.548-28.175,30.414c0,4.11,0.797,8.087,2.368,11.82       c0.877,2.084,0.246,4.498-1.539,5.886C332.493,402.655,327,413.879,327,426c0,21.505,17.495,39,39,39       c12.273,0,23.581-5.603,31.022-15.37C397.969,448.389,399.439,447.66,401,447.66z" fill="#3F456B"/></g></g><g opacity="0.2"><g><path d="M403.25,310.25c0,0,26.75,16.75,12.75,43.75c0,0,46,4,27,40c0,0,30,18,12,45c-17.541,26.312-55-2-55-2       s-14.975,16.822-43,13c-22-3-31-21-33-32c0,0-11.497,36.938,28.752,49.969S401,453,401,453s11.576,21.957,41.788,16.479       C473,464,481.734,443.1,478.867,416.05c0,0-4.867-17.05-16.867-25.05c0,0,13.031-42.209-27.484-48.605       C434.516,342.395,430.5,313.5,403.25,310.25z" fill="#3F456B"/></g></g></g></g><g><g><g><path d="M250.729,428.687c0,21.885-17.61,39.363-39.433,39.617c-0.158,0.004-0.322-0.287-0.481-0.287H49.241      c-0.482,0-0.962,0.283-1.443,0.269C24.033,467.525,5,448.166,5,424.213c0-21.966,16.008-40.118,36.994-43.571      c-0.606-2.5-0.928-5.08-0.928-7.773c0-18.326,14.855-33.163,33.18-33.163c10.339,0,19.572,4.737,25.655,12.152      c8.878-23.404,31.502-40.028,58.018-40.028c34.263,0,62.034,27.773,62.034,62.035c0,5.372-0.683,10.581-1.967,15.554      C236.611,392.793,250.729,409.092,250.729,428.687z" fill="#F0F3F7"/></g></g><g opacity="0.7"><g><path d="M85.476,353.092c0,7.375-5.977,13.352-13.352,13.352c-7.374,0-13.352-5.977-13.352-13.352      c0-7.374,5.979-13.352,13.352-13.352C79.499,339.74,85.476,345.718,85.476,353.092z" fill="#FFFFFF"/></g></g><g opacity="0.7"><g><path d="M62.802,404.189c0,12.186-9.877,22.062-22.063,22.062c-12.184,0-22.063-9.876-22.063-22.062      c0-12.184,9.879-22.063,22.063-22.063C52.925,382.126,62.802,392.005,62.802,404.189z" fill="#FFFFFF"/></g></g><g opacity="0.7"><g><path d="M179.651,350.538c0,19.67-15.946,35.617-35.619,35.617c-19.671,0-35.618-15.946-35.618-35.617      c0-19.672,15.947-35.618,35.618-35.618C163.706,314.919,179.651,330.866,179.651,350.538z" fill="#FFFFFF"/></g></g><g opacity="0.1"><g><path d="M56.03,447.579c-53.944,0-47.644-45.147-47.644-45.147c-12.888,68.735,43.15,65.585,43.15,65.585      s142.219,0,159.76,0c17.542,0,35.084-10.508,39.215-33.124c4.132-22.616-19.309-41.948-19.309-41.948      c2.609,3.769,25.616,54.451-27.155,54.451H71.978L56.03,447.579z" fill="#3F456B"/></g></g><g><g><path d="M191.58,464.922v0.004h-0.435C191.288,464.926,191.437,464.926,191.58,464.922z" fill="#4D4D4D"/></g></g><g><g><path d="M177.948,473.422c-47.744,0-129.84-0.015-130.312-0.03C20.925,472.538,0,450.96,0,424.268      c0-22.5,14.979-41.728,36.268-47.468c-0.134-1.301-0.202-2.607-0.202-3.916c0-21.047,17.128-38.17,38.181-38.17      c8.862,0,17.299,3.039,24.038,8.516c11.371-22.04,34.474-36.398,59.634-36.398c36.963,0,67.034,30.071,67.034,67.034      c0,3.981-0.351,7.948-1.046,11.845c18.714,5.666,31.822,22.99,31.822,42.977c0,24.377-19.906,44.441-44.374,44.728      C211.123,473.42,197.378,473.422,177.948,473.422z M211.289,468.414h0.011H211.289z M47.899,463.396      c3.608,0.016,162.225,0.024,163.375,0.019c19.037-0.277,34.455-15.834,34.455-34.728c0-16.896-12.043-31.341-28.635-34.349      c-1.367-0.248-2.57-1.054-3.319-2.224c-0.749-1.171-0.978-2.601-0.631-3.946c1.2-4.648,1.809-9.46,1.809-14.303      c0-31.449-25.585-57.034-57.034-57.034c-23.556,0-44.993,14.79-53.343,36.804c-0.632,1.668-2.106,2.873-3.867,3.161      c-1.759,0.286-3.542-0.384-4.673-1.763c-5.38-6.559-13.322-10.319-21.789-10.319c-15.539,0-28.181,12.637-28.181,28.17      c0,2.228,0.265,4.451,0.788,6.609c0.327,1.352,0.077,2.779-0.691,3.938c-0.769,1.159-1.984,1.946-3.357,2.172      C23.796,388.73,10,404.991,10,424.268C10,445.51,26.642,462.686,47.899,463.396z" fill="#3F456B"/></g></g><g><g><path d="M74.806,387.073c-0.518,0-1.044-0.08-1.562-0.251c-14.357-4.72-33.509-0.699-33.701-0.658      c-2.699,0.583-5.358-1.137-5.939-3.835c-0.582-2.697,1.131-5.356,3.828-5.939c0.89-0.192,21.963-4.645,38.935,0.933      c2.623,0.862,4.051,3.688,3.188,6.312C78.863,385.738,76.907,387.073,74.806,387.073z" fill="#3F456B"/></g></g></g><g><g><g><path d="M312.23,335.68c1.63-4.08,2.53-8.52,2.53-13.18c0-18.7-14.45-34.02-32.8-35.4      c0.03-0.53,0.04-1.06,0.04-1.6c0-17.4-14.1-31.5-31.5-31.5S219,268.1,219,285.5c0,0.54,0.01,1.07,0.04,1.6      c-18.35,1.38-32.8,16.7-32.8,35.4c0,4.88,0.98,9.53,2.76,13.76c-10.35,8.05-17,20.62-17,34.74c0,24.3,19.7,44,44,44      c14.28,0,26.97-6.8,35-17.34c8.03,10.54,20.72,17.34,35,17.34c24.3,0,44-19.7,44-44C330,356.53,323.02,343.69,312.23,335.68z" fill="#8DD3B7"/></g></g><g opacity="0.2"><g><path d="M258,352.58c0,15.7-13.43,28.42-30,28.42s-30-12.72-30-28.42c0-7.13,2.77-13.65,7.37-18.64      C196.89,330.32,191,322.31,191,313c0-12.7,10.97-23,24.5-23s24.5,10.3,24.5,23c0,4.5-1.38,8.7-3.77,12.25      C248.8,328.63,258,339.59,258,352.58z" fill="#FFFFFF"/></g></g><g opacity="0.2"><g><ellipse cx="240.5" cy="275.429" fill="#FFFFFF" rx="17.5" ry="16.429"/></g></g><g><g><path d="M286,420c-13.371,0-25.829-5.292-35-14.698C241.829,414.708,229.371,420,216,420      c-27.019,0-49-21.981-49-49c0-13.992,5.824-27.031,16.101-36.314c-1.236-3.919-1.86-8.003-1.86-12.186      c0-19.516,14.105-36.175,32.864-39.779C215.529,263.888,231.309,249,250.5,249s34.971,14.888,36.396,33.721      c18.759,3.604,32.864,20.264,32.864,39.779c0,3.921-0.556,7.771-1.656,11.49C328.745,343.236,335,356.812,335,371      C335,398.019,313.019,420,286,420z M251,392.66c1.561,0,3.031,0.729,3.978,1.97C262.419,404.397,273.727,410,286,410      c21.505,0,39-17.495,39-39c0-12.464-5.741-23.874-15.75-31.306c-1.822-1.353-2.505-3.763-1.663-5.869      c1.442-3.609,2.173-7.419,2.173-11.325c0-15.866-12.376-29.226-28.175-30.414c-2.719-0.205-4.772-2.55-4.617-5.271      c0.025-0.436,0.032-0.871,0.032-1.314c0-14.612-11.888-26.5-26.5-26.5S224,270.888,224,285.5c0,0.443,0.007,0.879,0.032,1.314      c0.155,2.722-1.898,5.066-4.617,5.271c-15.799,1.188-28.175,14.548-28.175,30.414c0,4.11,0.797,8.087,2.368,11.82      c0.877,2.084,0.247,4.498-1.539,5.887C182.493,347.655,177,358.879,177,371c0,21.505,17.495,39,39,39      c12.273,0,23.581-5.603,31.022-15.37C247.969,393.389,249.439,392.66,251,392.66z" fill="#3F456B"/></g></g><g opacity="0.2"><g><path d="M253.25,255.25c0,0,26.75,16.75,12.75,43.75c0,0,46,4,27,40c0,0,30,18,12,45c-17.541,26.312-55-2-55-2      s-14.975,16.822-43,13c-22-3-31-21-33-32c0,0-11.497,36.938,28.752,49.969S251,398,251,398s11.576,21.957,41.788,16.479      C323,409,331.734,388.1,328.867,361.05c0,0-4.867-17.05-16.867-25.05c0,0,13.031-42.209-27.484-48.605      C284.516,287.395,280.5,258.5,253.25,255.25z" fill="#3F456B"/></g></g></g><g><g><polygon fill="#E95A6B" points="143.833,32.188 397.342,212 145.153,212    "/></g></g><g opacity="0.2"><g><polygon fill="#FFFFFF" points="146.655,35.009 393.712,209.751 368,211 147,55    "/></g></g><g><g><path d="M32.5,495c0,0,0-112.5,152.04-112.5s152.041,111.232,152.041,111.232" fill="#6EBAB1"/></g></g><g opacity="0.3"><g><path d="M190,382.82c0,0,102.356,21.864,59,112.18h107C356,495,322,382.5,190,382.82z" fill="#3F456B"/></g></g><g><g><path d="M405.9,417.921L342.805,495H474C474,495,483.801,430.342,405.9,417.921z" fill="#6EBAB1"/></g></g><g opacity="0.3"><g><path d="M385.5,417.921c0,0,62.5,15.579,44,77.079H474C474,495,487.5,422.842,385.5,417.921z" fill="#3F456B"/></g></g><g opacity="0.2"><g><path d="M33.636,484.607C33.636,484.607,87,371,271,400c0,0-64-44-166.105-2.393     C30.253,428.023,33.636,484.607,33.636,484.607z" fill="#FFFFFF"/></g></g><g opacity="0.2"><g><ellipse cx="128" cy="421.5" fill="#FFFFFF" rx="63" ry="31.5" transform="matrix(0.9668 -0.2556 0.2556 0.9668 -103.4893 46.7214)"/></g></g><g opacity="0.2"><g><polygon fill="#3F456B" points="392.818,212 145,212 145,195 373.593,195    "/></g></g><g opacity="0.5"><g><path d="M59.377,290.532c-2.12,0.001-4.048-1.351-4.738-3.414c-5.251-15.699-22.299-10.691-24.226-10.069     c-2.62,0.847-5.442-0.581-6.298-3.2c-0.856-2.618,0.557-5.433,3.172-6.299c0.28-0.093,6.973-2.271,14.699-1.49     c6.462,0.653,11.876,3.197,15.929,7.38c3.93-6.955,11.619-13.829,25.387-15.616c2.738-0.355,5.247,1.576,5.602,4.314     s-1.576,5.246-4.315,5.602c-19.621,2.548-20.195,17.285-20.21,17.911c-0.058,2.429-1.852,4.464-4.253,4.826     C59.875,290.515,59.625,290.532,59.377,290.532z" fill="#3F456B"/></g></g><g opacity="0.5"><g><path d="M311.538,88.693c-0.084,0-0.168-0.002-0.252-0.006c-2.409-0.122-4.394-1.925-4.71-4.315     c-0.937-7.084-4.632-11.501-11.297-13.504c-5.329-1.602-10.507-0.997-10.556-0.99c-2.751,0.357-5.245-1.58-5.6-4.318     c-0.354-2.739,1.58-5.246,4.318-5.6c0.292-0.038,7.281-0.903,14.715,1.331c6.222,1.87,11.053,5.396,14.235,10.274     c5.182-6.08,14.043-11.366,27.893-10.506c2.756,0.172,4.852,2.545,4.68,5.301s-2.558,4.855-5.301,4.68     c-19.139-1.208-22.892,12.247-23.255,13.784C315.872,87.089,313.844,88.693,311.538,88.693z" fill="#3F456B"/></g></g></g><g id="Lines"><g><g><path d="M144,500c-2.761,0-5-2.238-5-5V32c0-2.762,2.239-5,5-5s5,2.238,5,5v463C149,497.762,146.761,500,144,500z     " fill="#3F456B"/></g></g><g><g><path d="M32.499,500c-2.723,0-4.953-2.185-4.998-4.918c-0.149-9.034,2.793-18.032,5.39-25.972l0.118-0.359     c15.365-47.001,59.286-81.032,114.623-88.812c11.512-1.619,23.93-2.439,36.91-2.439c35.446,0,65.756,6.018,90.09,17.886     c19.705,9.611,35.543,23.039,47.073,39.909c19.651,28.754,19.877,57.239,19.877,58.438c0,2.762-2.238,5-5,5     c-2.759,0-4.995-2.233-5-4.991l0,0c-0.001-0.267-0.305-26.989-18.417-53.218c-10.579-15.317-25.126-27.533-43.239-36.306     c-22.902-11.093-51.63-16.718-85.384-16.718c-12.515,0-24.465,0.788-35.517,2.342c-51.528,7.244-92.341,38.671-106.511,82.017     l-0.118,0.36c-2.466,7.543-5.017,15.343-4.896,22.699c0.045,2.761-2.156,5.036-4.917,5.081C32.555,500,32.526,500,32.499,500z" fill="#3F456B"/></g></g><g><g><path d="M496,500H17c-2.761,0-5-2.238-5-5s2.239-5,5-5h479c2.762,0,5,2.238,5,5S498.762,500,496,500z" fill="#3F456B"/></g></g><g><g><g><ellipse cx="336.193" cy="425.072" fill="#F5F6F7" rx="68.644" ry="68.645" transform="matrix(0.2859 -0.9583 0.9583 0.2859 -167.2538 625.7043)"/></g></g><g opacity="0.15"><g><path d="M396.537,390.226c19.648,32.976,8.844,75.637-24.133,95.285c-32.977,19.648-75.637,8.843-95.285-24.133      c0,0,38.347,37.107,87.479,7.834C410.738,441.72,396.537,390.226,396.537,390.226z" fill="#3F456B"/></g></g><g><g><path d="M346.914,405.868c-4.566,18.027-22.88,28.939-40.906,24.374c-18.026-4.566-28.939-22.88-24.374-40.907      c4.566-18.026,22.881-28.938,40.908-24.372C340.568,369.529,351.479,387.842,346.914,405.868z" fill="#FFFFFF"/></g></g><g><g><path d="M336.186,498.725c-5.97,0-12.028-0.731-18.073-2.263c-19.069-4.829-35.116-16.796-45.186-33.694      c-10.068-16.898-12.954-36.707-8.124-55.776c4.829-19.069,16.796-35.116,33.695-45.185c16.898-10.07,36.706-12.955,55.776-8.125      c39.364,9.971,63.278,50.107,53.309,89.472l0,0C399.144,476.473,369.088,498.725,336.186,498.725z M336.2,361.42      c-28.438,0-54.41,19.229-61.704,48.026c-4.174,16.479-1.68,33.599,7.021,48.203c8.701,14.604,22.569,24.945,39.05,29.119      c34.012,8.613,68.705-12.051,77.322-46.07c8.615-34.02-12.052-68.706-46.07-77.323C346.597,362.053,341.356,361.42,336.2,361.42      z M402.736,441.926h0.01H402.736z" fill="#3F456B"/></g></g><g opacity="0.2"><g><g><g><path d="M371.968,368.608c0,3.53-2.859,6.392-6.393,6.392c-3.528,0-6.39-2.862-6.39-6.392        s2.862-6.393,6.39-6.393C369.108,362.215,371.968,365.078,371.968,368.608z" fill="#3F456B"/></g></g><g><g><path d="M342.942,368.608c0,3.53-2.86,6.392-6.392,6.392c-3.53,0-6.392-2.862-6.392-6.392        s2.862-6.393,6.392-6.393C340.082,362.215,342.942,365.078,342.942,368.608z" fill="#3F456B"/></g></g><g><g><path d="M313.915,368.608c0,3.53-2.86,6.392-6.392,6.392c-3.529,0-6.391-2.862-6.391-6.392        s2.862-6.393,6.391-6.393C311.055,362.215,313.915,365.078,313.915,368.608z" fill="#3F456B"/></g></g></g><g><g><g><path d="M386.968,397.608c0,3.53-2.859,6.392-6.393,6.392c-3.528,0-6.39-2.862-6.39-6.392        s2.862-6.393,6.39-6.393C384.108,391.215,386.968,394.078,386.968,397.608z" fill="#3F456B"/></g></g><g><g><path d="M299.889,397.608c0,3.53-2.86,6.392-6.392,6.392c-3.53,0-6.392-2.862-6.392-6.392        s2.862-6.393,6.392-6.393C297.03,391.215,299.889,394.078,299.889,397.608z" fill="#3F456B"/></g></g><g><g><path d="M357.942,397.608c0,3.53-2.86,6.392-6.392,6.392c-3.53,0-6.392-2.862-6.392-6.392        s2.862-6.393,6.392-6.393C355.082,391.215,357.942,394.078,357.942,397.608z" fill="#3F456B"/></g></g><g><g><path d="M328.915,397.608c0,3.53-2.86,6.392-6.392,6.392c-3.529,0-6.391-2.862-6.391-6.392        s2.862-6.393,6.391-6.393C326.055,391.215,328.915,394.078,328.915,397.608z" fill="#3F456B"/></g></g></g><g><g><g><path d="M371.968,426.608c0,3.53-2.859,6.392-6.393,6.392c-3.528,0-6.39-2.862-6.39-6.392        s2.862-6.393,6.39-6.393C369.108,420.215,371.968,423.078,371.968,426.608z" fill="#3F456B"/></g></g><g><g><path d="M284.889,426.608c0,3.53-2.86,6.392-6.392,6.392c-3.53,0-6.392-2.862-6.392-6.392        s2.862-6.393,6.392-6.393C282.03,420.215,284.889,423.078,284.889,426.608z" fill="#3F456B"/></g></g><g><g><path d="M342.942,426.608c0,3.53-2.86,6.392-6.392,6.392c-3.53,0-6.392-2.862-6.392-6.392        s2.862-6.393,6.392-6.393C340.082,420.215,342.942,423.078,342.942,426.608z" fill="#3F456B"/></g></g><g><g><path d="M313.915,426.608c0,3.53-2.86,6.392-6.392,6.392c-3.529,0-6.391-2.862-6.391-6.392        s2.862-6.393,6.391-6.393C311.055,420.215,313.915,423.078,313.915,426.608z" fill="#3F456B"/></g></g><g><g><path d="M400.994,426.608c0,3.53-2.86,6.392-6.392,6.392c-3.53,0-6.392-2.862-6.392-6.392        s2.862-6.393,6.392-6.393C398.135,420.215,400.994,423.078,400.994,426.608z" fill="#3F456B"/></g></g></g><g><g><g><path d="M386.968,455.608c0,3.53-2.859,6.392-6.393,6.392c-3.528,0-6.39-2.862-6.39-6.392        s2.862-6.393,6.39-6.393C384.108,449.215,386.968,452.078,386.968,455.608z" fill="#3F456B"/></g></g><g><g><path d="M299.889,455.608c0,3.53-2.86,6.392-6.392,6.392c-3.53,0-6.392-2.862-6.392-6.392        s2.862-6.393,6.392-6.393C297.03,449.215,299.889,452.078,299.889,455.608z" fill="#3F456B"/></g></g><g><g><path d="M357.942,455.608c0,3.53-2.86,6.392-6.392,6.392c-3.53,0-6.392-2.862-6.392-6.392        s2.862-6.393,6.392-6.393C355.082,449.215,357.942,452.078,357.942,455.608z" fill="#3F456B"/></g></g><g><g><path d="M328.915,455.608c0,3.53-2.86,6.392-6.392,6.392c-3.529,0-6.391-2.862-6.391-6.392        s2.862-6.393,6.391-6.393C326.055,449.215,328.915,452.078,328.915,455.608z" fill="#3F456B"/></g></g></g><g><g><g><path d="M371.968,484.608c0,3.53-2.859,6.392-6.393,6.392c-3.528,0-6.39-2.862-6.39-6.392        s2.862-6.393,6.39-6.393C369.108,478.215,371.968,481.078,371.968,484.608z" fill="#3F456B"/></g></g><g><g><path d="M342.942,484.608c0,3.53-2.86,6.392-6.392,6.392c-3.53,0-6.392-2.862-6.392-6.392        s2.862-6.393,6.392-6.393C340.082,478.215,342.942,481.078,342.942,484.608z" fill="#3F456B"/></g></g><g><g><path d="M313.915,484.608c0,3.53-2.86,6.392-6.392,6.392c-3.529,0-6.391-2.862-6.391-6.392        s2.862-6.393,6.391-6.393C311.055,478.215,313.915,481.078,313.915,484.608z" fill="#3F456B"/></g></g></g></g></g><g><g><path d="M474.003,500c-0.059,0-0.117-0.001-0.177-0.003c-2.76-0.096-4.919-2.411-4.823-5.171     c0.963-27.737-9.474-48.173-31.02-60.738c-16.482-9.612-33.646-10.911-33.818-10.923c-2.752-0.192-4.831-2.577-4.643-5.33     c0.188-2.751,2.585-4.796,5.318-4.647c0.782,0.053,19.37,1.406,37.85,12.07c17.323,9.997,37.685,30.241,36.307,69.916     C478.903,497.874,476.685,500,474.003,500z" fill="#3F456B"/></g></g><g><g><path d="M397.342,217H145c-2.761,0-5-2.238-5-5s2.239-5,5-5h236.672L141.104,36.076     c-2.251-1.6-2.779-4.721-1.18-6.972c1.599-2.252,4.721-2.778,6.972-1.181l253.341,180c1.774,1.261,2.529,3.523,1.868,5.596     C401.443,215.593,399.518,217,397.342,217z" fill="#3F456B"/></g></g></g></svg>